<?xml version="1.0" encoding="UTF-8" standalone="no"?>
<!DOCTYPE svg PUBLIC "-//W3C//DTD SVG 1.1//EN" "http://www.w3.org/Graphics/SVG/1.1/DTD/svg11.dtd">
<svg width="100%" height="100%" viewBox="0 0 446 446" version="1.1" xmlns="http://www.w3.org/2000/svg" xmlns:xlink="http://www.w3.org/1999/xlink" xml:space="preserve" xmlns:serif="http://www.serif.com/" style="fill-rule:evenodd;clip-rule:evenodd;stroke-miterlimit:2;">
    <g id="Colour-White">
        <path d="M274.323,392.393C269.686,394.117 263.638,396.052 260.137,399.068C259.52,399.601 258.782,399.962 257.993,400.119C244.675,402.752 231.527,403.981 218.543,403.789C201.768,403.541 185.39,401.056 169.41,396.349C152.706,391.429 137.435,384.586 123.599,375.832C92.143,355.919 68.708,329.305 53.295,295.987C45.373,278.872 40.751,260.939 38.324,242.063C37.862,238.435 37.613,235.524 37.578,233.331C37.528,229.596 37.067,226.075 37.095,221.638C37.173,208.654 38.557,195.783 41.248,183.04C42.505,177.091 44.123,171.298 46.111,165.654C46.189,165.448 46.21,165.228 46.189,165.008C45.373,157.631 45.01,152.407 45.11,149.326C45.16,147.828 45.799,144.712 47.034,139.976C47.126,139.614 47.169,138.443 47.161,136.455C47.161,136.256 47.133,136.064 47.084,135.873C45.713,130.968 46.26,126.083 48.731,121.206C49.1,120.475 49.98,120.219 50.555,120.673C51.471,121.397 51.719,123.343 52.117,125.075C52.806,128.099 51.734,132.323 50.519,134.922C49.306,137.527 48.603,139.203 48.418,139.955C47.226,144.789 46.062,148.573 46.409,153.472C46.622,156.404 46.899,159.804 47.232,163.673C47.247,163.872 47.516,163.907 47.587,163.723C53.253,148.425 60.82,134.261 70.298,121.235C70.476,120.993 71.05,120.014 72.037,118.295C72.158,118.09 72.243,117.877 72.3,117.649C73.208,114.142 74.515,109.975 76.225,105.14C77.149,102.514 77.433,98.631 78.405,96.117C79.307,93.789 80.407,91.659 81.692,89.735C81.955,89.338 82.09,88.869 82.083,88.393C81.919,82.742 85.291,76.978 89.537,73.408C90.069,72.953 90.9,73.244 91.034,73.933C91.844,78.064 88.614,83.822 85.739,86.853C82.835,89.912 80.656,93.455 79.2,97.48C78.916,98.268 78.59,99.681 78.214,101.726C77.454,105.886 75.452,110.571 74.508,113.901C74.26,114.752 74.146,115.399 74.167,115.832C74.175,116.017 74.373,116.13 74.536,116.038C74.891,115.846 76.616,113.326 77.447,112.389C82.736,106.432 88.203,100.852 93.846,95.656C95.365,94.265 97.196,92.773 99.341,91.191C105.155,86.889 110.48,81.756 116.869,78.05C118.664,77.007 121.043,75.458 124.011,73.422C124.358,73.18 124.869,72.662 125.53,71.867C125.672,71.696 125.785,71.512 125.871,71.306C128.525,64.845 131.897,61.53 137.321,57.235C137.506,57.093 137.655,56.916 137.755,56.703C139.919,52.244 146.132,47.552 151.044,46.806C151.591,46.729 152.002,47.289 151.761,47.786C149.127,53.217 144.968,56.568 139.295,57.825C138.826,57.931 138.379,58.115 137.974,58.371C133.012,61.53 129.37,65.711 127.049,70.916C126.964,71.107 127.177,71.291 127.355,71.185L127.775,70.929C127.756,71.118 127.742,71.251 127.737,71.278C127.773,72.035 127.218,72.334 126.787,73.001C126.252,73.623 125.853,73.878 125.516,74.181C122.839,76.567 119.573,77.595 116.691,79.605C114.306,81.266 111.885,82.969 109.422,84.716C109.316,84.787 109.287,84.929 109.351,85.043L109.45,85.213C109.472,85.256 109.528,85.27 109.571,85.248C116.223,82.295 122.789,78.178 128.838,75.636C137.875,71.831 144.968,69.012 153.72,67.323C153.927,67.28 154.842,66.925 156.453,66.252C156.681,66.159 156.901,66.031 157.092,65.875C158.655,64.618 160.706,63.028 163.255,61.118C165.256,59.613 166.861,57.725 168.6,55.9C168.806,55.687 168.969,55.446 169.104,55.191C170.978,51.571 174.129,49.363 178.381,48.077C178.549,48.024 178.773,48.015 178.995,48.002C178.895,48.02 178.85,48.03 178.907,48.029C181.099,47.974 179.532,47.929 179.522,47.932C179.374,47.978 179.185,47.991 178.995,48.002C179.255,47.956 179.886,47.865 180.03,47.828C219.317,37.841 261.309,41.205 298.537,57.292C303.123,59.273 308.497,61.927 314.667,65.25C341.295,79.591 364.155,101.314 380.32,125.955C388.995,139.181 395.952,154.224 401.198,171.077C405.152,183.785 407.644,198.267 408.688,214.532C409.078,220.587 408.943,227.402 408.297,234.978C407.781,240.927 407.057,246.624 406.124,252.073C406.058,252.023 406.013,251.97 405.992,251.914C405.714,251.171 405.459,251.136 404.872,251.172C405.129,249.75 405.363,248.309 405.571,246.84C410.484,212.36 405.003,177.822 390.081,146.5C373.149,110.954 343.077,81.195 308.291,63.49C287.661,52.99 265.192,46.607 240.877,44.343C230.555,43.385 220.034,43.377 209.321,44.336C198.75,45.281 188.372,47.027 178.199,49.582C174.969,50.391 172.477,52.053 170.73,54.566C170.581,54.779 170.808,55.049 171.043,54.935C173.407,53.799 175.181,52.883 176.36,52.181C177.744,51.35 178.83,51.854 179.625,53.678C179.838,54.168 179.704,54.736 179.298,55.084C176.495,57.476 173.385,58.741 169.978,58.883C169.708,58.889 169.445,58.946 169.196,59.053C165.554,60.55 161.969,63.532 158.789,66.074C158.669,66.173 158.754,66.365 158.91,66.337C164.639,65.214 171.27,64.519 177.637,64.271C181.734,64.107 185.61,63.774 189.252,63.255C191.048,63.007 192.724,62.588 194.279,62.013C194.583,61.899 194.867,61.729 195.109,61.516C197.693,59.202 200.482,56.681 203.962,56.277C204.522,56.213 204.949,56.369 205.225,56.746C205.523,57.143 205.389,57.718 204.941,57.938C202.776,59.039 200.355,60.124 197.686,61.203C197.508,61.274 197.345,61.374 197.195,61.501L195.911,62.61C195.719,62.772 195.854,63.085 196.102,63.056C201.157,62.454 205.097,62.02 207.922,61.757C208.917,61.672 210.237,61.211 211.053,60.742C211.195,60.663 211.234,60.506 211.187,60.378C211.184,60.49 211.144,60.599 211.037,60.67C210.951,60.727 210.85,60.879 210.729,60.897C210.669,60.905 210.671,60.891 210.616,60.913C210.228,61.068 210.217,61.013 209.805,61.059C209.756,61.064 209.706,61.062 209.659,61.075C209.64,61.08 209.63,61.105 209.61,61.108C209.508,61.119 209.404,61.112 209.302,61.124C208.912,61.167 208.759,61.236 208.605,61.254C208.558,61.259 208.329,61.284 208.102,61.562C208.08,61.589 208.09,61.676 208.086,61.708L205.344,61.886C205.364,61.81 205.393,61.832 205.442,61.773C205.452,61.76 205.436,61.739 205.442,61.724C205.447,61.71 205.466,61.704 205.474,61.691C205.62,61.458 205.64,61.474 205.782,61.237C205.843,61.135 205.949,61.061 206.042,60.978C206.051,60.97 206.063,60.965 206.074,60.962L206.804,60.718C207.31,60.55 208.248,60.387 208.264,60.378C208.332,60.339 208.779,60.083 209.172,60.005L209.247,59.99C207.775,59.983 206.452,60.428 205.275,61.331C205.225,61.367 204.876,61.857 204.855,61.822C204.848,61.815 202.679,62.818 205.133,61.317C205.16,61.3 205.172,61.297 205.186,61.291C206.308,60.616 207.547,59.372 209.023,59.096C210.677,58.776 212.097,58.989 213.283,59.734C213.701,59.997 213.709,60.607 213.297,60.884C209.939,63.149 204.856,63.61 200.916,63.66C199.51,63.674 198.367,63.78 197.494,63.979C195.968,64.32 194.612,63.774 192.915,63.944C188.875,64.334 186.639,64.569 186.221,64.64C185.943,64.682 185.795,64.981 185.923,65.222C186.036,65.441 186.249,65.619 186.561,65.747C190.146,67.26 193.646,68.132 197.054,68.373C197.323,68.395 197.991,68.572 199.056,68.906C199.298,68.984 199.56,68.927 199.752,68.771C201.313,67.479 204.934,69.225 206.105,70.44C206.63,70.993 206.744,71.753 206.375,72.257C206.276,72.392 206.028,72.449 205.623,72.441C203.613,72.384 201.747,72.427 200.604,71.746C199.397,71.029 198.225,70.496 197.096,70.149C196.919,70.092 196.755,69.999 196.613,69.879C196.266,69.574 195.698,69.403 194.91,69.368C194.754,69.361 193.365,69.112 193.214,69.084C190.977,68.657 189.99,68.487 187.321,67.146C183.715,65.328 180.584,64.959 176.303,65.279C170.12,65.747 163.603,66.599 156.745,67.834C156.411,67.898 156.39,68.359 156.717,68.452C161.267,69.723 165.54,71.27 169.545,73.102C169.928,73.28 170.325,73.408 170.737,73.493C173.002,73.961 175.6,74.174 178.525,74.124C179.434,74.11 180.087,74.436 180.484,75.097C180.513,75.146 180.407,75.395 180.158,75.856C180.1,75.961 180.002,76.029 179.894,76.053C179.79,76.076 179.677,76.057 179.582,75.991L179.327,75.807C179.199,75.722 179.05,75.665 178.894,75.651L172.221,74.947C172.128,74.941 172.071,75.054 172.142,75.118C172.278,75.245 172.451,75.399 172.662,75.579C172.492,75.5 172.385,75.454 172.381,75.464L172.803,75.699C173.121,75.968 173.514,76.289 173.981,76.666C174.18,76.822 174.33,77.021 174.429,77.248C175.764,80.322 179.32,80.868 182.429,80.876C182.621,80.876 182.727,80.655 182.607,80.507C182.193,79.991 181.725,79.618 181.206,79.383L181.209,79.387C181.249,79.427 181.307,79.446 181.344,79.491C181.466,79.637 181.634,79.718 181.77,79.854C181.791,79.875 181.829,79.868 181.853,79.885C181.901,79.919 181.883,79.939 181.936,79.968C181.992,79.999 181.998,79.982 182.05,80.02C182.097,80.054 182.127,80.09 182.175,80.114C182.181,80.117 182.191,80.108 182.195,80.114C182.214,80.136 182.229,80.178 182.247,80.197C182.266,80.216 182.288,80.235 182.299,80.269C182.301,80.276 182.294,80.285 182.299,80.29C182.307,80.298 182.325,80.291 182.33,80.3C182.346,80.328 182.338,80.373 182.351,80.404C182.382,80.475 182.376,80.549 182.393,80.622C182.405,80.677 182.433,80.673 182.413,80.726C182.41,80.736 182.391,80.73 182.382,80.736L182.258,80.819C182.056,80.954 181.518,80.73 181.458,80.705C181.176,80.588 181.142,80.658 180.784,80.539C180.555,80.463 180.534,80.583 179.922,80.404C179.602,80.311 179.61,80.286 179.278,80.238C178.818,80.172 178.813,80.2 178.365,80.072C178.288,80.05 178.19,80.071 178.116,80.031C178.097,80.02 178.084,79.999 178.064,79.989C177.949,79.932 177.839,79.911 177.732,79.844C177.709,79.83 177.678,79.831 177.659,79.813C177.651,79.805 177.657,79.789 177.649,79.781C177.644,79.776 177.634,79.785 177.628,79.781C177.519,79.716 177.43,79.626 177.317,79.563C177.214,79.506 177.122,79.458 177.005,79.439C176.713,79.39 176.567,79.211 176.497,79.169C176.473,79.155 176.469,79.161 176.455,79.138C176.286,78.867 176.254,78.896 176.05,78.743C176.031,78.729 176.043,78.722 176.029,78.702C175.993,78.647 175.978,78.642 175.957,78.588C175.95,78.572 175.926,78.57 175.915,78.556C175.911,78.551 175.919,78.542 175.915,78.536C175.855,78.435 175.77,78.408 175.687,78.339C175.674,78.327 175.661,78.314 175.645,78.307C175.636,78.303 175.623,78.314 175.614,78.307C175.598,78.295 175.612,78.285 175.593,78.276C175.545,78.252 175.502,78.205 175.459,78.172C175.448,78.164 175.423,78.134 175.417,78.131C175.411,78.128 175.401,78.136 175.396,78.131C175.391,78.126 175.401,78.115 175.396,78.11C175.391,78.105 175.381,78.114 175.375,78.11C175.335,78.08 175.32,78.043 175.272,78.017C175.196,77.975 175.112,77.93 175.064,77.882L174.867,77.55L175.51,77.55C175.602,77.573 175.684,77.625 175.78,77.643C176.041,77.692 176.138,77.774 176.652,77.871C176.743,77.889 176.818,77.898 176.906,77.925C176.326,77.679 175.739,77.423 175.117,77.17C175.018,77.135 174.975,77.021 175.011,76.928L172.803,75.699C172.754,75.658 172.707,75.618 172.662,75.579C173.36,75.906 175.12,76.811 175.16,76.822C177.836,77.78 179.562,78.305 180.342,78.398C181.897,78.575 183.076,79.327 183.864,80.641C184.155,81.124 183.842,81.748 183.274,81.805C181.279,82.004 179.284,81.77 177.29,81.11C174.961,80.336 173.591,78.072 172.128,76.531C170.177,74.479 167.152,72.854 163.908,71.902C161.863,71.299 158.931,70.405 155.119,69.211C153.365,68.665 151.136,68.793 148.425,69.602C138.536,72.541 128.987,76.517 119.773,81.535C119.73,81.557 119.744,81.628 119.793,81.621C124.579,80.947 129.065,81.231 133.978,80.549C134.29,80.499 136.632,80.237 140.999,79.747C141.51,79.69 142.014,79.569 142.496,79.384L146.564,77.83C146.799,77.737 147.054,77.723 147.296,77.794C148.914,78.249 150.881,78.447 153.195,78.39C153.268,78.389 153.346,78.39 153.43,78.394C153.653,78.368 153.884,78.354 154.119,78.354C156.257,78.354 157.992,79.507 157.992,80.927C157.992,82.317 156.329,83.451 154.254,83.498C151.083,83.907 147.633,82.816 144.605,81.408C144.35,81.288 144.066,81.223 143.782,81.223L134.425,81.223C134.077,81.223 133.872,81.621 134.077,81.905C135.249,83.524 137.648,83.992 140.473,85.021C141.389,85.355 142.49,86.299 143.774,87.847C143.888,87.989 144.037,88.103 144.208,88.188L145.003,88.6C145.564,88.89 145.414,89.728 144.783,89.806C141.489,90.19 138.862,89.196 136.91,86.824C136.171,85.923 136.505,84.83 135.391,84.155C133.949,83.282 132.998,82.6 132.522,82.111C132.345,81.933 132.104,81.834 131.848,81.841C125.38,82.118 121.164,82.494 119.19,82.963C118.679,83.083 115.761,84.149 110.429,86.143C107.923,87.081 105.517,88.422 103.203,90.161C96.196,95.45 91.042,99.909 87.734,103.543C84.014,107.639 80.244,111.636 76.432,115.534C76.361,115.605 76.353,115.725 76.418,115.811C76.481,115.889 76.602,115.91 76.687,115.853C81.181,113.063 86.009,110.855 91.176,109.244C93.2,108.605 95.415,108.498 97.261,107.682C97.559,107.547 97.885,107.448 98.212,107.398C100.846,106.972 102.819,106.361 104.147,105.566C106.994,103.849 109.265,102.393 110.962,101.2C112.617,100.043 113.426,98.95 114.675,96.991C115.868,95.117 118.516,92.901 120.929,94.172C121.093,94.257 121.065,94.492 120.887,94.535C119.076,94.946 117.472,95.798 116.074,97.097C115.896,97.26 115.789,97.48 115.74,97.765C115.732,97.822 115.697,97.885 115.655,97.928L113.205,100.377C112.978,100.604 113.234,100.98 113.532,100.86L117.11,99.398C117.344,99.305 117.486,99.071 117.472,98.822L117.472,98.595C117.465,98.453 117.543,98.319 117.664,98.24L123.556,94.499C123.926,94.265 124.372,94.18 124.806,94.265L126.019,94.499C126.722,94.641 126.985,95.514 126.467,96.011C124.635,97.779 122.959,98.986 121.44,99.625C120.979,99.816 119.353,100.27 116.577,100.98C114.739,101.456 113.114,101.328 111.374,102.486C108.527,104.374 105.389,106.156 101.961,107.831C101.818,107.902 101.854,108.115 102.01,108.136C105.691,108.608 110.413,109.148 114.24,109.529C115.585,109.44 117.44,109.652 119.424,110.177C123.148,111.164 125.927,112.886 125.627,114.021C125.326,115.156 122.059,115.276 118.335,114.29C114.706,113.328 111.975,111.668 112.115,110.534C107.701,110.013 103.424,109.393 99.284,108.669C98.737,108.577 98.269,108.64 97.878,108.875C97.644,109.017 97.665,109.364 97.92,109.471L108.712,113.957C108.874,114.028 109.017,114.15 109.109,114.306L110.799,117.23C110.92,117.436 110.778,117.692 110.543,117.713C110.018,117.763 109.486,117.557 108.953,117.096C104.956,113.673 100.483,111.224 95.543,109.741C95.33,109.677 95.11,109.656 94.89,109.677C93.363,109.812 92.263,109.989 91.603,110.21C85.313,112.318 79.52,115.257 74.224,119.041C73.926,119.261 73.656,119.517 73.421,119.801C69.95,124.096 67.217,127.851 65.222,131.074C59.55,140.225 54.232,150.881 49.278,163.055C48.191,165.725 47.595,167.35 47.488,167.932C47.481,167.983 47.474,168.025 47.453,168.074L44.393,175.528C44.357,175.621 44.393,175.721 44.471,175.77C44.556,175.82 44.663,175.806 44.726,175.727C44.989,175.408 45.415,174.762 46.012,173.796C49.171,168.65 52.955,164.362 57.363,160.933C59.032,159.634 61.473,158.264 63.575,156.893C63.852,156.716 64.101,156.496 64.314,156.24C66.06,154.167 67.934,151.775 69.935,149.056C71.661,146.728 72.307,143.874 73.99,141.936C75.615,140.054 77.468,138.528 79.548,137.343C80.336,136.895 81.288,137.556 81.146,138.45C80.258,143.952 75.246,146.734 71.221,149.773C71.186,149.802 71.157,149.83 71.129,149.858L66.358,155.538C66.223,155.694 66.358,155.928 66.557,155.899C67.402,155.765 68.005,155.516 68.367,155.169C71.661,151.981 77.603,149.766 82.004,152.002C82.558,152.279 82.615,153.046 82.118,153.408C78.526,156.027 75.083,156.581 69.971,156.475C69.503,156.467 69.041,156.524 68.587,156.645L64.476,157.759C63.951,157.909 63.448,158.129 62.986,158.427C57.519,161.948 53.508,165.051 49.973,170.14C49.831,170.347 48.411,172.356 45.707,176.161C43.769,178.886 42.625,182.039 42.264,185.61C42.242,185.815 42.505,185.929 42.633,185.766C44.024,184.062 45.344,182.862 47.829,182.053C49.781,181.414 52.06,180.598 53.374,179.064C55.659,176.395 58.612,174.762 62.126,174.329C62.929,174.23 63.639,174.776 63.696,175.522C63.724,175.941 63.476,176.395 62.951,176.899C60.267,179.462 57.285,180.796 53.998,180.91C53.309,180.938 52.65,181.159 52.01,181.563C50.726,182.394 49.256,182.955 47.609,183.231C47.368,183.274 47.126,183.359 46.914,183.487C44.45,184.971 42.895,186.433 42.249,187.86C41.639,189.216 41.049,191.864 40.482,195.811C37.18,218.792 38.182,241.197 43.477,263.026C46.104,273.874 49.746,284.544 54.396,295.036C60.224,308.177 68.828,322.319 78.611,334.146C94.584,353.47 113.191,368.883 134.439,380.383C155.431,391.748 178.312,398.77 203.081,401.461C212.985,402.54 222.234,402.795 230.832,402.234C240.21,401.623 249.375,400.424 258.327,398.642C259.208,398.464 260.009,398.032 260.634,397.385C263.701,394.226 269.773,393.458 274.991,391.272C275.156,391.204 278.563,390.125 281.26,389.324C280.616,389.564 279.983,389.781 279.359,389.973C276.058,390.981 274.12,391.712 273.531,392.16C273.417,392.245 273.474,392.423 273.616,392.423C273.853,392.419 274.089,392.409 274.323,392.393ZM281.26,389.324C283.489,388.492 285.838,387.374 288.311,385.969C288.51,385.856 288.687,385.714 288.851,385.551L292.691,381.581C292.762,381.51 292.868,381.504 292.947,381.561C293.025,381.617 293.053,381.731 293.004,381.816C292.201,383.258 291.065,384.464 289.596,385.437C289.496,385.501 289.461,385.636 289.51,385.742C289.567,385.856 289.695,385.906 289.809,385.87C296.149,383.747 302.779,380.865 308.374,377.039C310.027,375.91 312.221,374.568 314.962,373.013C315.068,372.957 315.11,372.821 315.061,372.708L315.054,372.701C315.019,372.623 314.926,372.588 314.841,372.623C305.058,376.392 298.349,378.827 294.715,379.928C287.338,382.157 278.436,384.031 268,385.557C267.801,385.586 267.61,385.65 267.44,385.75C261.511,389.199 257.352,394.737 250.153,395.751C249.464,395.852 248.961,395.688 248.648,395.269C248.286,394.779 248.35,394.09 248.797,393.665C251.97,390.676 256.344,389.633 261.334,388.312C262.158,388.092 263.187,387.36 264.429,386.111C264.514,386.019 264.443,385.87 264.323,385.884C252.73,387.389 245.333,388.163 242.145,388.206C238.709,388.255 236.224,388.625 234.684,389.299C233.215,389.945 231.595,390.733 229.814,391.663C227.351,392.948 224.993,393.665 222.743,393.8C222.438,393.821 222.14,393.814 221.834,393.786C220.741,393.679 218.944,393.381 216.453,392.877C215.708,392.728 215.154,392.415 214.799,391.939C214.366,391.365 214.615,390.505 215.324,390.144C218.121,388.717 221.153,388.035 224.425,388.092C229.544,388.184 233.477,388.61 237.062,387.588C237.339,387.51 237.389,387.133 237.141,386.985L232.923,384.521C232.554,384.308 232.157,384.173 231.737,384.109C230.623,383.903 223.141,383.591 223.261,380.652C223.29,379.949 223.879,379.409 224.539,379.488C225.994,379.651 227.755,379.914 229.814,380.275C230.048,380.311 230.275,380.382 230.488,380.488C231.737,381.07 232.824,382.143 233.747,383.712C233.825,383.846 233.939,383.953 234.073,384.024L238.816,386.594C238.936,386.658 239.064,386.707 239.199,386.736C240.306,386.97 241.947,387.027 244.112,386.906C249.983,386.58 255.811,385.998 261.59,385.153C262.896,384.961 264.074,384.883 265.118,384.919C265.552,384.933 265.736,384.379 265.381,384.13L256.677,377.99C256.521,377.876 256.344,377.812 256.159,377.791L249.088,377.045C248.57,376.996 248.13,376.627 247.995,376.122L247.896,375.739C247.811,375.427 248.13,375.15 248.428,375.292C248.647,375.395 248.869,375.491 249.095,375.58C249.02,375.481 249.013,375.445 248.968,375.385C248.938,375.345 248.888,375.312 248.841,375.233C248.822,375.201 248.817,375.123 248.765,375.106C248.718,375.091 248.715,375.107 248.689,375.081L248.532,374.674C248.515,374.729 248.482,374.779 248.435,374.816L248.286,374.938C248.272,374.944 248.257,374.944 248.251,374.93L245.674,371.438C245.319,370.962 245.631,370.287 246.227,370.238C249.415,369.989 251.424,371.231 253.958,373.723C257.976,377.677 262.583,380.659 266.701,383.86C266.985,384.081 267.34,384.187 267.702,384.159C275.405,383.57 283.122,382.008 290.86,379.488C290.994,379.445 291.016,379.267 290.903,379.182C285.848,375.626 280.31,374.326 274.283,375.271C273.836,375.342 272.544,375.065 270.407,374.441C270.18,374.369 269.988,374.213 269.881,374L268.568,371.43C268.433,371.168 268.59,370.848 268.881,370.784C270.854,370.351 272.643,370.394 274.255,370.897C274.517,370.983 274.73,371.16 274.858,371.395C275.206,372.026 275.838,372.517 276.753,372.85C276.966,372.928 277.137,373.091 277.222,373.304C277.258,373.383 277.279,373.425 277.286,373.439C277.371,373.517 277.477,373.567 277.591,373.588L285.074,375.058C285.166,375.072 285.23,374.958 285.159,374.895C284.74,374.49 284.208,374.198 283.569,374.021C280.935,373.283 278.465,372.211 276.151,370.812C275.958,370.698 275.881,370.457 275.973,370.252C276.065,370.045 276.299,369.939 276.512,370.003C277.613,370.329 278.471,370.698 279.075,371.104C281.162,372.502 282.618,372.821 285.017,373.872C285.088,373.908 285.152,373.943 285.216,373.993L291.477,378.835C291.619,378.941 291.797,378.991 291.967,378.969C293.466,378.807 294.658,378.586 295.545,378.295C298.69,377.272 304.746,375.185 313.705,372.034C317.212,370.798 320.413,369.321 323.31,367.597C329.877,363.684 336.004,359.44 341.676,354.847C347.802,349.891 353.83,344.396 359.75,338.355C359.835,338.27 359.843,338.135 359.772,338.035C359.707,337.936 359.573,337.907 359.466,337.958C352.559,341.287 344.154,345.156 337.282,345.426C335.244,345.504 333.703,345.645 332.66,345.838C332.46,345.873 332.262,345.951 332.085,346.057L317.964,354.549C317.325,354.932 316.842,355.528 316.594,356.23L315.82,358.467C315.728,358.716 315.586,358.943 315.402,359.134C312.391,362.151 309.722,364.459 306.03,363.806C304.668,363.564 304,362.684 304.021,361.157C304.029,360.902 304.128,360.654 304.306,360.469C305.349,359.355 306.336,358.609 307.259,358.233C311.114,356.65 314.514,354.733 317.467,352.475C317.957,352.099 319.2,351.503 321.187,350.694C324.46,349.358 327.634,347.584 330.637,345.738C330.807,345.631 330.722,345.362 330.516,345.376C326.611,345.631 322.175,345.773 318.249,345.383C315.97,345.156 307.983,345.327 307.372,342.543C307.23,341.898 307.727,341.265 308.431,341.194C309.757,341.074 311.128,341.18 312.541,341.521C312.846,341.592 313.13,341.699 313.407,341.833C317.744,344.02 322.707,344.886 328.279,344.425C328.5,344.41 328.571,344.126 328.386,344.006L323.998,341.081C323.061,340.456 322.039,339.967 320.96,339.626C318.419,338.824 315.53,338.433 314.315,335.679C314.095,335.182 314.429,334.62 314.968,334.578C319.015,334.259 321.968,335.743 323.821,339.016C323.85,339.065 323.885,339.115 323.935,339.158L328.79,343.878C329.132,344.212 329.586,344.396 330.055,344.396L334.08,344.396C334.441,344.396 334.654,343.999 334.456,343.694C333.157,341.741 331.254,340.186 328.755,339.03C327.577,338.483 326.711,337.645 326.157,336.502C325.916,335.998 326.271,335.401 326.831,335.387C328.776,335.324 330.26,336.069 331.282,337.631C332.547,339.555 334.165,341.528 336.132,343.559C336.337,343.779 336.607,343.928 336.905,343.992C340.199,344.716 346.013,342.465 349.527,341.032C353.567,339.377 357.286,337.83 360.673,336.403C361.511,336.048 362.838,334.89 364.663,332.931C368.66,328.63 372.082,324.291 375.375,319.357C379.457,313.224 382.525,308.858 385.144,304.066C389.176,296.697 391.867,291.344 393.223,288C395.118,283.317 396.528,279.845 397.457,277.589L397.474,277.54L397.478,277.538C397.772,276.824 398.017,276.235 398.214,275.769C398.235,275.717 398.243,275.667 398.239,275.619C398.22,275.387 397.93,275.231 397.724,275.414C394.763,278.076 391.774,280.298 388.743,282.073C387.288,282.918 385.904,283.407 384.59,283.543C384.476,283.549 384.377,283.606 384.306,283.699L379.685,289.413L379.642,289.478C375.759,296.072 371.393,301.858 366.53,306.834C366.267,307.105 366.04,307.41 365.855,307.736C364.989,309.298 364.322,311.229 363.243,312.925C361.12,316.277 359.346,318.619 355.974,320.458C355.852,320.529 355.704,320.55 355.569,320.529C355.441,320.507 355.377,320.501 355.37,320.493C354.98,320.266 354.802,319.797 354.937,319.372C355.846,316.49 357.592,315.78 360.403,314.318C360.638,314.196 360.851,314.019 361.007,313.791L364.123,309.376C364.294,309.135 364.01,308.837 363.761,308.993C361.205,310.597 355.022,314.275 352.332,313.408C351.75,313.217 351.529,312.507 351.906,312.024C353.517,309.951 355.746,307.843 358.437,307.204C360.439,306.728 362.122,306.337 363.477,306.033C366.707,305.294 368.83,302.845 371.279,299.799C372.607,298.145 375.361,293.907 379.536,287.099C379.614,286.986 379.699,286.879 379.798,286.787L383.192,283.748C383.306,283.642 383.255,283.45 383.099,283.429C380.274,283.052 377.377,283.074 374.41,283.478C371.982,283.812 366.153,284.614 363.619,282.918C363.101,282.57 363.25,281.775 363.86,281.639C364.365,281.533 364.819,281.576 365.224,281.767C367.964,283.052 370.882,283.237 373.984,282.328C374.161,282.279 374.197,282.037 374.033,281.937C371.911,280.617 370.427,279.879 369.568,279.73C365.664,279.035 360.822,277.295 359.125,273.731C358.906,273.262 359.232,272.723 359.743,272.702C364.095,272.532 366.928,274.377 370.122,277.827C372.017,279.872 375.233,282.207 378.307,281.966C378.535,281.945 378.677,281.704 378.577,281.497C377.533,279.233 376.192,277.671 374.559,276.798C372.997,275.967 372.046,275.144 371.762,273.738C371.585,272.879 372.465,272.169 373.345,272.461C374.95,272.993 375.83,273.66 376.54,275.279C377.385,277.21 378.57,279.226 380.11,281.32C380.544,281.909 381.232,282.279 381.97,282.307C383.951,282.399 385.656,282.307 387.508,281.292C391.732,278.964 395.466,276.159 398.703,272.872C399.228,272.333 399.619,271.687 399.839,270.969C400.47,268.918 401.066,266.927 401.622,264.969L401.643,264.704C401.65,264.608 401.695,264.533 401.759,264.483C403.017,260.018 404.07,255.71 404.883,251.22C405.471,251.185 405.725,251.22 406.004,251.963C406.025,252.019 406.069,252.072 406.136,252.122C405.952,253.194 405.761,254.256 405.561,255.309C405.061,257.936 404.095,261.744 402.653,266.744C402.663,268.819 402.098,271.552 401.82,272.556C400.826,276.113 400.145,279.442 398.91,282.778C397.695,286.08 396.539,289.302 395.452,292.447C395.345,292.739 395.282,293.043 395.26,293.356C395.047,296.33 395.019,299.362 395.175,302.458C395.324,305.439 395.055,307.953 394.359,309.997C393.216,313.355 392.641,315.066 392.62,315.144C392.549,315.456 392.485,315.768 392.421,316.081C391.896,318.856 392.534,323.003 391.916,326.268C391.299,329.484 390.022,332.281 388.076,334.645C387.757,335.028 387.175,335.042 386.841,334.667C386.507,334.297 386.301,333.914 386.224,333.509C385.358,329.115 385.883,325.153 387.799,321.639C389.794,317.997 391.391,314.59 392.599,311.417C394.011,307.71 394.104,303.884 394.033,299.199C393.982,296.338 394.068,294.365 394.28,293.292C395.288,288.167 398.121,282.878 399.364,278.81C399.613,277.993 399.676,277.419 399.556,277.071C399.511,276.947 399.379,276.896 399.27,276.93C394.557,288.391 391.046,297.317 385.243,306.856C379.514,316.263 373.082,325.307 365.94,334.003C365.267,334.827 364.776,335.786 364.5,336.814C362.512,344.226 360.95,351.737 356.698,357.864C354.759,360.654 351.863,364.161 350.884,367.618C349.229,373.432 345.729,377.507 340.398,379.835C339.752,380.113 339.212,380.212 338.779,380.133C338.268,380.027 337.955,379.516 338.091,379.012C339.944,372.218 343.955,369.073 349.499,365.282C349.704,365.148 349.897,364.984 350.067,364.793C354.248,360.121 357.407,355.074 359.559,349.642C361.057,345.873 361.909,341.088 363.229,336.758C363.264,336.637 363.115,336.552 363.03,336.644C354.461,346.228 344.736,354.889 333.845,362.62C329.224,365.9 323.679,369.286 317.205,372.772C314.877,374.028 312.044,376.002 308.714,378.693C308.281,379.048 307.905,379.466 307.607,379.942C305.413,383.42 304.227,385.302 304.064,385.579C302.188,388.8 299.501,391.685 296.005,394.236L292.385,397.67C289.64,400.273 284.479,404.099 280.563,403.791C280.061,403.754 279.761,403.221 279.978,402.771C281.291,400.101 283.346,398.098 286.137,396.77C288.424,395.682 290.202,395.022 291.47,394.797C291.695,394.76 291.92,394.677 292.122,394.565C294.548,393.23 296.357,392.051 297.686,391.071C298.457,390.211 299.621,389.401 300.415,388.433C302.303,386.139 304.156,383.414 305.981,380.261C306.081,380.091 305.888,379.9 305.718,380.006C301.814,382.483 297.619,384.528 293.124,386.139C284.087,389.37 278.94,391.215 277.684,391.677C276.603,392.072 275.482,392.311 274.323,392.393L274.488,392.331C274.857,392.197 278.179,391.005 278.328,390.643L284.534,388.479C284.583,388.368 283.084,388.782 281.26,389.324ZM151.558,78.997C151.362,78.963 151.166,78.933 150.969,78.906C150.982,78.927 150.997,78.947 151.017,78.961C151.037,78.976 151.07,78.95 151.093,78.961C151.145,78.988 151.112,79.023 151.169,79.037C151.189,79.042 151.29,79.068 151.401,79.094C151.452,79.061 151.504,79.028 151.558,78.997ZM145.185,79.339C144.517,79.589 143.895,79.926 143.342,80.365C143.256,80.436 143.291,80.57 143.398,80.592L144.25,80.76C144.228,80.724 144.266,80.673 144.25,80.634C144.249,80.632 144.129,80.611 144.123,80.609C144.102,80.598 144.065,80.543 144.022,80.532C143.947,80.514 143.946,80.532 143.87,80.507C143.853,80.501 143.857,80.501 143.845,80.507C143.824,80.518 143.844,80.482 143.819,80.482C143.807,80.482 143.806,80.505 143.794,80.507C143.668,80.525 143.659,80.515 143.617,80.431L143.515,80.38C143.587,80.345 143.687,80.291 143.769,80.304C143.833,80.315 143.884,80.324 144.478,79.899C144.503,79.882 144.523,79.798 145.185,79.339ZM144.487,80.807L144.684,80.846C144.684,80.842 144.683,80.839 144.681,80.837C144.662,80.818 144.631,80.814 144.605,80.811C144.551,80.805 144.515,80.805 144.487,80.807ZM127.782,70.952C127.779,70.951 127.776,70.942 127.775,70.929C127.818,70.514 127.884,69.83 127.923,69.417L127.784,70.924L127.785,70.923L127.782,70.952ZM247.023,371.74C247.011,371.812 247.023,371.89 247.065,371.963L248.272,374.056C248.27,374.018 248.263,373.978 248.233,373.941C248.04,373.699 248.05,372.972 247.397,372.319L247.169,372.091C247.064,371.986 247.071,371.912 247.042,371.736C247.035,371.736 247.029,371.737 247.023,371.74ZM291.116,397.019C291.071,397.066 291.022,397.119 290.968,397.181C290.929,397.226 290.615,397.468 290.563,397.538C290.551,397.553 290.546,397.575 290.53,397.586C290.522,397.593 290.506,397.579 290.498,397.586C290.49,397.594 290.506,397.611 290.498,397.619C290.47,397.647 290.425,397.653 290.401,397.684C290.341,397.758 290.316,397.821 290.255,397.862C290.178,397.913 290.224,397.958 289.817,398.284C289.618,398.442 289.146,398.908 289.022,398.933C288.945,398.948 288.853,399.097 288.568,399.192C288.538,399.202 288.517,399.233 288.487,399.241C288.46,399.247 288.43,399.23 288.406,399.241C288.37,399.256 288.355,399.299 288.324,399.322C288.245,399.381 288.122,399.393 288.049,399.452C288.034,399.464 288.032,399.489 288.016,399.5C287.977,399.528 287.926,399.538 287.887,399.565C287.868,399.578 287.763,399.686 287.741,399.695C287.689,399.715 287.623,399.722 287.578,399.76C287.531,399.8 287.493,399.876 287.432,399.906C287.381,399.931 287.37,399.908 287.335,399.954C287.29,400.015 287.174,400.072 287.108,400.117C287.053,400.153 286.981,400.192 286.93,400.23C286.907,400.247 286.889,400.283 286.865,400.295C286.821,400.317 286.799,400.296 286.767,400.327C286.758,400.337 286.715,400.348 286.703,400.36C286.678,400.385 286.666,400.406 286.638,400.425C286.629,400.431 286.614,400.418 286.605,400.425C286.554,400.465 286.511,400.515 286.459,400.554C286.441,400.568 286.422,400.583 286.411,400.603C286.405,400.612 286.418,400.628 286.411,400.636C286.403,400.643 286.382,400.626 286.378,400.636C286.368,400.661 286.388,400.692 286.378,400.717C286.374,400.727 286.355,400.711 286.346,400.717C286.32,400.734 286.308,400.768 286.281,400.782C286.247,400.799 286.202,400.782 286.167,400.798C286.012,400.868 286.019,400.91 285.908,401.041C285.807,401.16 285.749,401.166 285.6,401.203C285.542,401.218 285.539,401.258 285.47,401.268C285.397,401.279 285.352,401.325 285.291,401.349C285.276,401.355 285.256,401.34 285.243,401.349C285.234,401.355 285.25,401.374 285.243,401.382C285.225,401.399 285.159,401.39 285.129,401.414C285.026,401.497 284.866,401.508 284.74,401.544C284.661,401.566 284.591,401.589 284.513,401.609C284.502,401.611 284.485,401.599 284.48,401.609C284.471,401.628 284.501,401.667 284.48,401.674C284.456,401.681 283.928,401.704 283.88,401.706C283.825,401.708 283.751,401.779 283.702,401.787C283.638,401.798 283.572,401.778 283.507,401.787C283.457,401.794 283.476,401.834 283.426,401.836C283.286,401.841 283.145,401.826 283.005,401.836C283,401.836 282.952,401.88 282.94,401.884C282.895,401.899 282.789,401.896 282.761,401.933C282.75,401.949 282.744,401.97 282.729,401.982C282.72,401.988 282.704,401.974 282.696,401.982C282.689,401.989 282.702,402.005 282.696,402.014C282.684,402.033 282.667,402.05 282.648,402.063C282.639,402.069 282.623,402.055 282.615,402.063C282.604,402.074 282.61,402.101 282.599,402.112C282.564,402.147 282.538,402.171 282.502,402.225C282.496,402.234 282.509,402.25 282.502,402.257C282.494,402.265 282.478,402.251 282.469,402.257C282.444,402.274 282.45,402.28 282.421,402.29C282.407,402.294 282.311,402.347 282.307,402.355C282.297,402.375 282.253,402.385 282.232,402.398L281.853,402.209C281.87,402.134 281.845,402.128 281.885,402.063C282.506,401.071 282.606,401.115 282.907,400.798C283.568,400.104 283.826,399.444 284.237,399.257C284.383,399.19 284.612,398.933 284.675,398.884C284.699,398.865 284.703,398.876 284.724,398.851C284.754,398.817 284.782,398.778 284.821,398.754C284.84,398.743 284.867,398.765 284.886,398.754C284.901,398.745 284.889,398.716 284.902,398.705C284.92,398.692 284.949,398.702 284.967,398.689C284.983,398.678 284.985,398.653 285,398.641C285.063,398.588 285.137,398.576 285.178,398.495C285.302,398.247 285.505,398.235 285.892,397.959C285.914,397.944 285.932,397.923 285.956,397.911C285.966,397.906 285.98,397.917 285.989,397.911C286.004,397.899 286.006,397.874 286.021,397.862C286.03,397.856 286.046,397.87 286.054,397.862C286.06,397.856 286.051,397.844 286.051,397.836C284.271,398.857 282.715,400.213 281.659,402.073C281.539,402.276 281.704,402.531 281.936,402.508C285.194,402.125 289.01,399.345 291.571,396.911C291.417,396.957 291.266,396.993 291.116,397.019ZM289.919,396.16C288.661,396.574 287.418,397.077 286.264,397.716C286.297,397.699 286.342,397.689 286.378,397.667C286.468,397.614 286.585,397.621 286.686,397.57C286.799,397.514 286.913,397.432 287.027,397.375C287.299,397.239 287.298,397.239 287.595,397.165C287.68,397.143 287.785,397.146 287.854,397.1C287.945,397.039 288.108,397.039 288.211,397.019C288.23,397.015 288.24,396.99 288.26,396.986C288.362,396.966 288.46,396.96 288.552,396.905C288.6,396.876 288.646,396.841 288.698,396.824C288.731,396.813 288.781,396.807 288.811,396.792C288.822,396.786 288.816,396.763 288.827,396.759C288.853,396.751 288.883,396.768 288.908,396.759C288.92,396.755 288.914,396.732 288.925,396.727C288.939,396.719 288.959,396.734 288.973,396.727C288.984,396.721 288.979,396.7 288.989,396.694C289.004,396.687 289.025,396.703 289.038,396.694C289.047,396.688 289.029,396.668 289.038,396.662C289.052,396.653 289.072,396.669 289.087,396.662C289.115,396.648 289.107,396.639 289.135,396.629C289.177,396.616 289.202,396.564 289.233,396.548C289.247,396.541 289.266,396.554 289.281,396.548C289.296,396.543 289.299,396.52 289.314,396.516C289.345,396.508 289.38,396.524 289.411,396.516C289.435,396.51 289.453,396.489 289.476,396.483L289.835,396.394C289.846,396.31 289.876,396.231 289.919,396.16ZM253.249,376.406C253.815,376.426 254.397,376.414 254.995,376.371C255.101,376.364 255.144,376.236 255.073,376.158C252.858,373.815 251.175,371.75 247.377,371.458C247.195,371.444 247.055,371.572 247.024,371.729C247.164,371.638 248.229,371.692 248.284,371.71C248.375,371.741 248.431,371.778 248.537,371.786C248.839,371.812 248.843,371.804 249.095,371.964C249.349,372.126 249.48,371.994 249.678,372.192C249.759,372.274 249.934,372.316 250.032,372.395C250.126,372.47 250.417,372.607 250.463,372.699C250.519,372.811 250.69,372.723 250.767,372.8C250.81,372.843 251.122,373.155 251.375,373.256C251.447,373.285 251.511,373.363 251.578,373.408C251.664,373.466 251.697,373.555 251.781,373.611C251.985,373.747 252.323,374.086 252.389,374.219C252.529,374.499 252.719,374.549 252.82,374.802C252.849,374.875 252.897,374.832 252.921,374.904C252.944,374.971 252.961,374.975 252.972,375.056C253.01,375.323 253.19,375.2 253.378,375.512C253.45,375.632 253.49,375.726 253.606,375.841C253.623,375.858 253.638,375.881 253.656,375.917C253.718,376.041 253.754,376.077 253.852,376.197C253.888,376.191 253.924,376.177 253.96,376.171C254.134,376.142 254.024,375.873 253.986,375.74C253.96,375.651 253.854,375.511 253.758,375.486C253.699,375.472 253.693,375.485 253.656,375.436C253.618,375.384 253.575,375.431 253.048,374.904C252.981,374.836 252.884,374.717 252.845,374.599C252.831,374.556 252.579,374.323 252.744,374.422C253.028,374.592 252.994,374.633 253.276,374.802C253.347,374.845 253.439,374.872 253.504,374.929C253.549,374.968 253.58,375.025 253.631,375.056C253.723,375.111 253.754,375.066 253.808,375.157C253.854,375.233 253.962,375.264 253.986,375.36C253.998,375.41 253.991,375.413 254.036,375.436C254.064,375.45 254.038,375.463 254.062,375.486C254.074,375.498 254.101,375.475 254.113,375.486C254.124,375.498 254.098,375.528 254.113,375.537C254.134,375.551 254.169,375.521 254.189,375.537C254.302,375.628 254.259,375.772 254.391,375.816C254.415,375.824 254.461,375.944 254.467,375.968C254.499,376.095 254.498,376.21 254.442,376.323C254.414,376.379 253.866,376.401 253.249,376.406ZM286.251,397.723L286.067,397.827C286.079,397.828 286.092,397.834 286.102,397.83C286.157,397.808 286.202,397.753 286.251,397.723Z" style="stroke:black;stroke-width:0.7px;"/>
        <g transform="matrix(1,0,0,1,22.7222,-40.988)">
            <text x="100.84px" y="350.696px" style="font-family:'Garamond', serif;font-size:68px;">C</text>
            <text x="151.537px" y="350.696px" style="font-family:'Garamond', serif;font-size:68px;">A</text>
            <text x="205.09px" y="350.696px" style="font-family:'Garamond', serif;font-size:68px;">R</text>
            <g transform="matrix(68,0,0,68,299.715,350.696)">
            </g>
            <text x="255.09px" y="350.696px" style="font-family:'Garamond', serif;font-size:68px;">E</text>
        </g>
        <g transform="matrix(1,0,0,1,11.0181,-0.42269)">
            <text x="100.84px" y="176.675px" style="font-family:'Garamond', serif;font-size:68px;">M</text>
            <text x="165.018px" y="176.675px" style="font-family:'Garamond', serif;font-size:68px;">A</text>
            <text x="218.57px" y="176.675px" style="font-family:'Garamond', serif;font-size:68px;">D</text>
            <g transform="matrix(68,0,0,68,323.123,176.675)">
            </g>
            <text x="278.498px" y="176.675px" style="font-family:'Garamond', serif;font-size:68px;">E</text>
        </g>
        <g transform="matrix(1.30674,0,0,1.30674,-67.6741,-80.9061)">
            <path d="M216.273,226.598C217.193,225.925 218.104,225.589 219.006,225.589C219.785,225.589 220.435,225.872 220.957,226.438C221.479,227.005 221.74,227.686 221.74,228.482C221.74,230.747 220.475,233.223 217.945,235.913C215.379,238.655 212.973,240.026 210.726,240.026C208.585,240.026 207.515,238.92 207.515,236.709C207.515,235.541 208.019,233.913 209.028,231.826C206.285,234.285 204.357,235.93 203.242,236.762C200.288,239.009 197.66,240.278 196.014,240.278C195.802,240.278 195.751,240.255 195.857,240.065C196.029,239.758 195.91,239.669 196.396,239.526C198.164,239.006 200.96,237.4 204.038,234.961C207.453,232.256 210.708,228.986 213.805,225.15C218.44,219.405 222.412,215.145 225.72,212.369C229.17,209.488 231.461,208.047 232.594,208.047C233.708,208.047 234.266,208.595 234.266,209.691C234.266,210.893 233.142,212.767 230.895,215.313C228.984,217.469 225.446,220.2 220.28,223.506C219.555,223.93 218.502,224.593 217.122,225.495C216.892,225.656 216.609,226.024 216.273,226.598ZM233.204,209.905C233.204,209.693 233.116,209.587 232.939,209.587C232.125,209.587 229.71,211.657 225.694,215.797C222.438,219.14 220.103,221.697 218.688,223.466C225.694,219.167 230.188,215.39 232.169,212.134C232.859,211.02 233.204,210.277 233.204,209.905ZM217.148,232.967C218.829,230.95 219.67,229.305 219.67,228.031C219.67,227.128 219.298,226.677 218.555,226.677C217.688,226.677 216.892,227.097 216.166,227.938C215.441,228.778 215.078,229.641 215.078,230.525C215.078,231.728 215.768,232.542 217.148,232.967ZM216.538,233.79C214.893,233.1 214.07,232.02 214.07,230.552C214.07,230.003 214.256,229.322 214.627,228.508C211.018,233.091 209.213,236.16 209.213,237.717C209.213,238.443 209.558,238.805 210.248,238.805C211.894,238.805 213.99,237.133 216.538,233.79Z" style="fill-rule:nonzero;"/>
            <path d="M237.822,239.283L239.467,239.23C239.697,239.23 239.812,239.375 239.812,239.665C239.812,239.992 239.405,240.192 238.591,240.265L236.946,240.345L229.542,249.5C225.101,254.56 221.952,257.09 220.094,257.09C219.21,257.09 218.767,256.497 218.767,255.31C218.767,252.67 220.505,249.618 223.982,246.154C227.459,242.689 231.037,240.541 234.717,239.708L240.21,232.648L235.858,236.523C233.204,238.717 231.399,239.814 230.444,239.814C229.329,239.814 228.772,239.026 228.772,237.452C228.772,236.09 229.418,234.488 230.709,232.648L233.947,228.562C231.859,230.419 229.462,232.427 226.755,234.586C224.544,236.337 223.049,237.47 222.27,237.983C220.13,239.416 218.396,240.132 217.069,240.132C216.856,240.132 216.75,240.014 216.75,239.777C216.75,239.468 216.927,239.268 217.281,239.177C219.51,238.63 222.589,236.749 226.516,233.535L231.161,229.72L234.159,227.071C235.84,225.623 236.787,224.899 236.999,224.899C237.459,224.899 237.897,225.054 238.313,225.364C238.729,225.675 238.936,226.051 238.936,226.495L234.743,231.36C231.948,234.676 230.55,236.883 230.55,237.982C230.55,238.301 230.727,238.46 231.081,238.46C232.143,238.46 234.734,236.493 238.857,232.558C241.882,229.669 244.394,227.09 246.394,224.821C246.801,224.36 247.093,224.13 247.269,224.13C247.606,224.13 247.955,224.249 248.318,224.487C248.68,224.726 248.862,225.004 248.862,225.322C248.862,225.498 248.747,225.71 248.517,225.957C245.261,229.49 241.696,233.932 237.822,239.283ZM233.788,240.875C230.232,242.025 227.007,244.126 224.115,247.178C221.222,250.23 219.776,252.738 219.776,254.702C219.776,255.303 219.988,255.604 220.413,255.604C222.111,255.604 226.57,250.695 233.788,240.875Z" style="fill-rule:nonzero;"/>
        </g>
        <g transform="matrix(0.903117,1.01652,-2.97991,2.64747,707.377,-563.921)">
            <path d="M163.17,234.802C162.926,234.804 162.697,234.851 162.453,234.853C162.358,234.854 159.319,234.369 156.135,233.097C153.867,232.19 153.025,231.593 152.831,231.469C152.799,231.448 152.773,231.399 152.892,231.429C152.952,231.443 156.657,233.457 161.863,234.405C162.108,234.45 162.107,234.448 162.348,234.493C162.704,234.56 162.96,234.602 162.961,234.602C163.056,234.665 163.075,234.739 163.17,234.802Z"/>
        </g>
        <g id="Needle" transform="matrix(0.860805,0.146287,-0.146287,0.860805,97.4934,197.681)">
            <path d="M70.034,19.069C68.941,20.156 67.785,21.236 66.566,22.307C64.276,24.318 61.857,26.322 59.448,28.636C45.64,41.886 31.934,55.177 18.324,68.505C17.196,69.609 15.626,71.111 14.047,72.032C13.9,72.116 13.797,72.129 13.735,72.066C13.672,72.004 13.684,71.901 13.768,71.756C14.69,70.175 16.19,68.603 17.294,67.475C30.614,53.857 43.893,40.141 57.136,26.324C59.448,23.915 61.452,21.493 63.46,19.204C66.412,15.839 69.427,12.954 72.504,10.544C73.411,9.834 75.475,8.365 76.437,9.325C77.397,10.285 75.928,12.349 75.218,13.259C73.895,14.951 72.428,16.624 70.817,18.278M69.627,17.476C70.915,16.154 73.331,13.532 72.739,12.94C71.985,12.186 67.944,16.309 67.48,16.772C67.017,17.236 62.896,21.28 63.65,22.033C64.404,22.787 68.448,18.664 68.908,18.2M68.908,18.2C69.007,18.101 69.275,17.837 69.627,17.476M70.817,18.278C70.56,18.542 70.299,18.806 70.034,19.069" style="fill-rule:nonzero;"/>
        </g>
        <path d="M223.349,58.997C222.988,58.996 222.696,58.702 222.696,58.341C222.697,57.981 222.991,57.688 223.351,57.689C225.149,57.693 226.94,57.725 228.723,57.786C229.084,57.798 229.367,58.101 229.354,58.462C229.342,58.822 229.039,59.105 228.679,59.093C226.909,59.033 225.132,59 223.349,58.997ZM244.611,60.41C244.253,60.363 244.001,60.034 244.048,59.676C244.095,59.319 244.424,59.066 244.782,59.114C248.353,59.584 251.888,60.17 255.383,60.865C255.737,60.935 255.967,61.28 255.897,61.634C255.826,61.988 255.482,62.218 255.128,62.147C251.66,61.458 248.153,60.877 244.611,60.41ZM270.634,66.032C270.288,65.928 270.093,65.562 270.198,65.217C270.303,64.871 270.668,64.676 271.013,64.781C274.453,65.825 277.846,66.978 281.187,68.236C281.525,68.364 281.696,68.741 281.569,69.079C281.442,69.416 281.064,69.587 280.727,69.46C277.412,68.212 274.046,67.068 270.634,66.032ZM295.392,75.821C295.069,75.661 294.936,75.269 295.095,74.945C295.255,74.622 295.647,74.489 295.971,74.648C299.19,76.236 302.35,77.926 305.447,79.713C305.76,79.893 305.867,80.293 305.687,80.606C305.506,80.919 305.106,81.026 304.794,80.845C301.721,79.073 298.586,77.396 295.392,75.821ZM318.234,89.5C317.941,89.29 317.873,88.881 318.082,88.588C318.292,88.294 318.701,88.226 318.995,88.436C321.911,90.521 324.757,92.699 327.528,94.964C327.808,95.193 327.849,95.605 327.621,95.885C327.392,96.164 326.98,96.205 326.7,95.977C323.951,93.729 321.128,91.569 318.234,89.5ZM338.572,106.683C338.316,106.429 338.315,106.014 338.569,105.758C338.824,105.502 339.238,105.501 339.494,105.755C342.035,108.28 344.494,110.886 346.867,113.57C347.107,113.841 347.081,114.254 346.811,114.493C346.54,114.732 346.127,114.707 345.888,114.437C343.533,111.774 341.093,109.188 338.572,106.683ZM355.885,126.912C355.673,126.619 355.739,126.21 356.031,125.998C356.323,125.787 356.732,125.852 356.944,126.144C359.044,129.042 361.052,132.01 362.964,135.044C363.156,135.349 363.064,135.753 362.759,135.946C362.454,136.138 362.05,136.046 361.857,135.741C359.96,132.731 357.968,129.786 355.885,126.912ZM369.71,149.665C369.549,149.342 369.679,148.949 370.002,148.788C370.324,148.626 370.718,148.756 370.879,149.079C372.481,152.274 373.982,155.528 375.378,158.837C375.519,159.169 375.363,159.553 375.03,159.693C374.698,159.834 374.314,159.678 374.174,159.345C372.788,156.063 371.299,152.835 369.71,149.665ZM379.659,174.36C379.552,174.015 379.745,173.649 380.089,173.541C380.434,173.434 380.801,173.627 380.908,173.972C381.966,177.38 382.917,180.835 383.756,184.332C383.841,184.683 383.624,185.037 383.273,185.121C382.922,185.205 382.569,184.989 382.485,184.638C381.652,181.168 380.709,177.74 379.659,174.36ZM385.449,200.346C385.399,199.989 385.65,199.658 386.007,199.609C386.364,199.559 386.695,199.809 386.744,200.167C387.233,203.694 387.609,207.257 387.871,210.852C387.897,211.212 387.626,211.525 387.266,211.552C386.906,211.578 386.593,211.307 386.567,210.947C386.307,207.381 385.933,203.846 385.449,200.346ZM386.958,226.929C386.966,226.568 387.266,226.282 387.627,226.291C387.987,226.299 388.273,226.599 388.265,226.96C388.18,230.565 387.979,234.142 387.667,237.687C387.635,238.047 387.317,238.313 386.958,238.281C386.598,238.25 386.332,237.932 386.364,237.573C386.674,234.055 386.873,230.506 386.958,226.929ZM384.185,253.409C384.251,253.054 384.594,252.821 384.948,252.887C385.303,252.954 385.537,253.296 385.47,253.65C385.139,255.415 384.779,257.17 384.392,258.914C384.314,259.267 383.964,259.489 383.612,259.411C383.26,259.333 383.037,258.983 383.116,258.631C383.5,256.901 383.856,255.16 384.185,253.409Z"/>
        <path d="M204.736,386.654C122.44,377.556 58.342,307.704 58.342,223C58.342,213.073 59.223,203.351 60.909,193.906" style="fill:none;stroke:black;stroke-width:1.3px;stroke-linecap:round;stroke-linejoin:round;stroke-miterlimit:1.5;stroke-dasharray:10.4,15.6,0,0,0,0;"/>
        <g transform="matrix(1.20841,0.623452,-1.82763,3.54241,387.546,-709.097)">
            <path d="M189.63,232.056C182.82,235.236 168.118,236.683 162.129,234.525" style="fill:none;stroke:black;stroke-width:0.4px;stroke-linecap:round;stroke-linejoin:round;stroke-miterlimit:1.5;"/>
        </g>
        <path d="M274.323,392.393C269.686,394.117 263.638,396.052 260.137,399.068C259.52,399.601 258.782,399.962 257.993,400.119C244.675,402.752 231.527,403.981 218.543,403.789C201.768,403.541 185.39,401.056 169.41,396.349C152.706,391.429 137.435,384.586 123.599,375.832C92.143,355.919 68.708,329.305 53.295,295.987C45.373,278.872 40.751,260.939 38.324,242.063C37.862,238.435 37.613,235.524 37.578,233.331C37.528,229.596 37.067,226.075 37.095,221.638C37.173,208.654 38.557,195.783 41.248,183.04C42.505,177.091 44.123,171.298 46.111,165.654C46.189,165.448 46.21,165.228 46.189,165.008C45.373,157.631 45.01,152.407 45.11,149.326C45.16,147.828 45.799,144.712 47.034,139.976C47.126,139.614 47.169,138.443 47.161,136.455C47.161,136.256 47.133,136.064 47.084,135.873C45.713,130.968 46.26,126.083 48.731,121.206C49.1,120.475 49.98,120.219 50.555,120.673C51.471,121.397 51.719,123.343 52.117,125.075C52.806,128.099 51.734,132.323 50.519,134.922C49.306,137.527 48.603,139.203 48.418,139.955C47.226,144.789 46.062,148.573 46.409,153.472C46.622,156.404 46.899,159.804 47.232,163.673C47.247,163.872 47.516,163.907 47.587,163.723C53.253,148.425 60.82,134.261 70.298,121.235C70.476,120.993 71.05,120.014 72.037,118.295C72.158,118.09 72.243,117.877 72.3,117.649C73.208,114.142 74.515,109.975 76.225,105.14C77.149,102.514 77.433,98.631 78.405,96.117C79.307,93.789 80.407,91.659 81.692,89.735C81.955,89.338 82.09,88.869 82.083,88.393C81.919,82.742 85.291,76.978 89.537,73.408C90.069,72.953 90.9,73.244 91.034,73.933C91.844,78.064 88.614,83.822 85.739,86.853C82.835,89.912 80.656,93.455 79.2,97.48C78.916,98.268 78.59,99.681 78.214,101.726C77.454,105.886 75.452,110.571 74.508,113.901C74.26,114.752 74.146,115.399 74.167,115.832C74.175,116.017 74.373,116.13 74.536,116.038C74.891,115.846 76.616,113.326 77.447,112.389C82.736,106.432 88.203,100.852 93.846,95.656C95.365,94.265 97.196,92.773 99.341,91.191C105.155,86.889 110.48,81.756 116.869,78.05C118.664,77.007 121.043,75.458 124.011,73.422C124.358,73.18 124.869,72.662 125.53,71.867C125.672,71.696 125.785,71.512 125.871,71.306C128.525,64.845 131.897,61.53 137.321,57.235C137.506,57.093 137.655,56.916 137.755,56.703C139.919,52.244 146.132,47.552 151.044,46.806C151.591,46.729 152.002,47.289 151.761,47.786C149.127,53.217 144.968,56.568 139.295,57.825C138.826,57.931 138.379,58.115 137.974,58.371C133.012,61.53 129.37,65.711 127.049,70.916C126.964,71.107 127.177,71.291 127.355,71.185L127.775,70.929C127.756,71.118 127.742,71.251 127.737,71.278C127.773,72.035 127.218,72.334 126.787,73.001C126.252,73.623 125.853,73.878 125.516,74.181C122.839,76.567 119.573,77.595 116.691,79.605C114.306,81.266 111.885,82.969 109.422,84.716C109.316,84.787 109.287,84.929 109.351,85.043L109.45,85.213C109.472,85.256 109.528,85.27 109.571,85.248C116.223,82.295 122.789,78.178 128.838,75.636C137.875,71.831 144.968,69.012 153.72,67.323C153.927,67.28 154.842,66.925 156.453,66.252C156.681,66.159 156.901,66.031 157.092,65.875C158.655,64.618 160.706,63.028 163.255,61.118C165.256,59.613 166.861,57.725 168.6,55.9C168.806,55.687 168.969,55.446 169.104,55.191C170.978,51.571 174.129,49.363 178.381,48.077C178.549,48.024 178.773,48.015 178.995,48.002C178.895,48.02 178.85,48.03 178.907,48.029C181.099,47.974 179.532,47.929 179.522,47.932C179.374,47.978 179.185,47.991 178.995,48.002C179.255,47.956 179.886,47.865 180.03,47.828C219.317,37.841 261.309,41.205 298.537,57.292C303.123,59.273 308.497,61.927 314.667,65.25C341.295,79.591 364.155,101.314 380.32,125.955C388.995,139.181 395.952,154.224 401.198,171.077C405.152,183.785 407.644,198.267 408.688,214.532C409.078,220.587 408.943,227.402 408.297,234.978C407.781,240.927 407.057,246.624 406.124,252.073C406.058,252.023 406.013,251.97 405.992,251.914C405.714,251.171 405.459,251.136 404.872,251.172C405.129,249.75 405.363,248.309 405.571,246.84C410.484,212.36 405.003,177.822 390.081,146.5C373.149,110.954 343.077,81.195 308.291,63.49C287.661,52.99 265.192,46.607 240.877,44.343C230.555,43.385 220.034,43.377 209.321,44.336C198.75,45.281 188.372,47.027 178.199,49.582C174.969,50.391 172.477,52.053 170.73,54.566C170.581,54.779 170.808,55.049 171.043,54.935C173.407,53.799 175.181,52.883 176.36,52.181C177.744,51.35 178.83,51.854 179.625,53.678C179.838,54.168 179.704,54.736 179.298,55.084C176.495,57.476 173.385,58.741 169.978,58.883C169.708,58.889 169.445,58.946 169.196,59.053C165.554,60.55 161.969,63.532 158.789,66.074C158.669,66.173 158.754,66.365 158.91,66.337C164.639,65.214 171.27,64.519 177.637,64.271C181.734,64.107 185.61,63.774 189.252,63.255C191.048,63.007 192.724,62.588 194.279,62.013C194.583,61.899 194.867,61.729 195.109,61.516C197.693,59.202 200.482,56.681 203.962,56.277C204.522,56.213 204.949,56.369 205.225,56.746C205.523,57.143 205.389,57.718 204.941,57.938C202.776,59.039 200.355,60.124 197.686,61.203C197.508,61.274 197.345,61.374 197.195,61.501L195.911,62.61C195.719,62.772 195.854,63.085 196.102,63.056C201.157,62.454 205.097,62.02 207.922,61.757C208.917,61.672 210.237,61.211 211.053,60.742C211.195,60.663 211.234,60.506 211.187,60.378C211.184,60.49 211.144,60.599 211.037,60.67C210.951,60.727 210.85,60.879 210.729,60.897C210.669,60.905 210.671,60.891 210.616,60.913C210.228,61.068 210.217,61.013 209.805,61.059C209.756,61.064 209.706,61.062 209.659,61.075C209.64,61.08 209.63,61.105 209.61,61.108C209.508,61.119 209.404,61.112 209.302,61.124C208.912,61.167 208.759,61.236 208.605,61.254C208.558,61.259 208.329,61.284 208.102,61.562C208.08,61.589 208.09,61.676 208.086,61.708L205.344,61.886C205.364,61.81 205.393,61.832 205.442,61.773C205.452,61.76 205.436,61.739 205.442,61.724C205.447,61.71 205.466,61.704 205.474,61.691C205.62,61.458 205.64,61.474 205.782,61.237C205.843,61.135 205.949,61.061 206.042,60.978C206.051,60.97 206.063,60.965 206.074,60.962L206.804,60.718C207.31,60.55 208.248,60.387 208.264,60.378C208.332,60.339 208.779,60.083 209.172,60.005L209.247,59.99C207.775,59.983 206.452,60.428 205.275,61.331C205.225,61.367 204.876,61.857 204.855,61.822C204.848,61.815 202.679,62.818 205.133,61.317C205.16,61.3 205.172,61.297 205.186,61.291C206.308,60.616 207.547,59.372 209.023,59.096C210.677,58.776 212.097,58.989 213.283,59.734C213.701,59.997 213.709,60.607 213.297,60.884C209.939,63.149 204.856,63.61 200.916,63.66C199.51,63.674 198.367,63.78 197.494,63.979C195.968,64.32 194.612,63.774 192.915,63.944C188.875,64.334 186.639,64.569 186.221,64.64C185.943,64.682 185.795,64.981 185.923,65.222C186.036,65.441 186.249,65.619 186.561,65.747C190.146,67.26 193.646,68.132 197.054,68.373C197.323,68.395 197.991,68.572 199.056,68.906C199.298,68.984 199.56,68.927 199.752,68.771C201.313,67.479 204.934,69.225 206.105,70.44C206.63,70.993 206.744,71.753 206.375,72.257C206.276,72.392 206.028,72.449 205.623,72.441C203.613,72.384 201.747,72.427 200.604,71.746C199.397,71.029 198.225,70.496 197.096,70.149C196.919,70.092 196.755,69.999 196.613,69.879C196.266,69.574 195.698,69.403 194.91,69.368C194.754,69.361 193.365,69.112 193.214,69.084C190.977,68.657 189.99,68.487 187.321,67.146C183.715,65.328 180.584,64.959 176.303,65.279C170.12,65.747 163.603,66.599 156.745,67.834C156.411,67.898 156.39,68.359 156.717,68.452C161.267,69.723 165.54,71.27 169.545,73.102C169.928,73.28 170.325,73.408 170.737,73.493C173.002,73.961 175.6,74.174 178.525,74.124C179.434,74.11 180.087,74.436 180.484,75.097C180.513,75.146 180.407,75.395 180.158,75.856C180.1,75.961 180.002,76.029 179.894,76.053C179.79,76.076 179.677,76.057 179.582,75.991L179.327,75.807C179.199,75.722 179.05,75.665 178.894,75.651L172.221,74.947C172.128,74.941 172.071,75.054 172.142,75.118C172.278,75.245 172.451,75.399 172.662,75.579C172.492,75.5 172.385,75.454 172.381,75.464L172.803,75.699C173.121,75.968 173.514,76.289 173.981,76.666C174.18,76.822 174.33,77.021 174.429,77.248C175.764,80.322 179.32,80.868 182.429,80.876C182.621,80.876 182.727,80.655 182.607,80.507C182.193,79.991 181.725,79.618 181.206,79.383L181.209,79.387C181.249,79.427 181.307,79.446 181.344,79.491C181.466,79.637 181.634,79.718 181.77,79.854C181.791,79.875 181.829,79.868 181.853,79.885C181.901,79.919 181.883,79.939 181.936,79.968C181.992,79.999 181.998,79.982 182.05,80.02C182.097,80.054 182.127,80.09 182.175,80.114C182.181,80.117 182.191,80.108 182.195,80.114C182.214,80.136 182.229,80.178 182.247,80.197C182.266,80.216 182.288,80.235 182.299,80.269C182.301,80.276 182.294,80.285 182.299,80.29C182.307,80.298 182.325,80.291 182.33,80.3C182.346,80.328 182.338,80.373 182.351,80.404C182.382,80.475 182.376,80.549 182.393,80.622C182.405,80.677 182.433,80.673 182.413,80.726C182.41,80.736 182.391,80.73 182.382,80.736L182.258,80.819C182.056,80.954 181.518,80.73 181.458,80.705C181.176,80.588 181.142,80.658 180.784,80.539C180.555,80.463 180.534,80.583 179.922,80.404C179.602,80.311 179.61,80.286 179.278,80.238C178.818,80.172 178.813,80.2 178.365,80.072C178.288,80.05 178.19,80.071 178.116,80.031C178.097,80.02 178.084,79.999 178.064,79.989C177.949,79.932 177.839,79.911 177.732,79.844C177.709,79.83 177.678,79.831 177.659,79.813C177.651,79.805 177.657,79.789 177.649,79.781C177.644,79.776 177.634,79.785 177.628,79.781C177.519,79.716 177.43,79.626 177.317,79.563C177.214,79.506 177.122,79.458 177.005,79.439C176.713,79.39 176.567,79.211 176.497,79.169C176.473,79.155 176.469,79.161 176.455,79.138C176.286,78.867 176.254,78.896 176.05,78.743C176.031,78.729 176.043,78.722 176.029,78.702C175.993,78.647 175.978,78.642 175.957,78.588C175.95,78.572 175.926,78.57 175.915,78.556C175.911,78.551 175.919,78.542 175.915,78.536C175.855,78.435 175.77,78.408 175.687,78.339C175.674,78.327 175.661,78.314 175.645,78.307C175.636,78.303 175.623,78.314 175.614,78.307C175.598,78.295 175.612,78.285 175.593,78.276C175.545,78.252 175.502,78.205 175.459,78.172C175.448,78.164 175.423,78.134 175.417,78.131C175.411,78.128 175.401,78.136 175.396,78.131C175.391,78.126 175.401,78.115 175.396,78.11C175.391,78.105 175.381,78.114 175.375,78.11C175.335,78.08 175.32,78.043 175.272,78.017C175.196,77.975 175.112,77.93 175.064,77.882L174.867,77.55L175.51,77.55C175.602,77.573 175.684,77.625 175.78,77.643C176.041,77.692 176.138,77.774 176.652,77.871C176.743,77.889 176.818,77.898 176.906,77.925C176.326,77.679 175.739,77.423 175.117,77.17C175.018,77.135 174.975,77.021 175.011,76.928L172.803,75.699C172.754,75.658 172.707,75.618 172.662,75.579C173.36,75.906 175.12,76.811 175.16,76.822C177.836,77.78 179.562,78.305 180.342,78.398C181.897,78.575 183.076,79.327 183.864,80.641C184.155,81.124 183.842,81.748 183.274,81.805C181.279,82.004 179.284,81.77 177.29,81.11C174.961,80.336 173.591,78.072 172.128,76.531C170.177,74.479 167.152,72.854 163.908,71.902C161.863,71.299 158.931,70.405 155.119,69.211C153.365,68.665 151.136,68.793 148.425,69.602C138.536,72.541 128.987,76.517 119.773,81.535C119.73,81.557 119.744,81.628 119.793,81.621C124.579,80.947 129.065,81.231 133.978,80.549C134.29,80.499 136.632,80.237 140.999,79.747C141.51,79.69 142.014,79.569 142.496,79.384L146.564,77.83C146.799,77.737 147.054,77.723 147.296,77.794C148.914,78.249 150.881,78.447 153.195,78.39C153.268,78.389 153.346,78.39 153.43,78.394C153.653,78.368 153.884,78.354 154.119,78.354C156.257,78.354 157.992,79.507 157.992,80.927C157.992,82.317 156.329,83.451 154.254,83.498C151.083,83.907 147.633,82.816 144.605,81.408C144.35,81.288 144.066,81.223 143.782,81.223L134.425,81.223C134.077,81.223 133.872,81.621 134.077,81.905C135.249,83.524 137.648,83.992 140.473,85.021C141.389,85.355 142.49,86.299 143.774,87.847C143.888,87.989 144.037,88.103 144.208,88.188L145.003,88.6C145.564,88.89 145.414,89.728 144.783,89.806C141.489,90.19 138.862,89.196 136.91,86.824C136.171,85.923 136.505,84.83 135.391,84.155C133.949,83.282 132.998,82.6 132.522,82.111C132.345,81.933 132.104,81.834 131.848,81.841C125.38,82.118 121.164,82.494 119.19,82.963C118.679,83.083 115.761,84.149 110.429,86.143C107.923,87.081 105.517,88.422 103.203,90.161C96.196,95.45 91.042,99.909 87.734,103.543C84.014,107.639 80.244,111.636 76.432,115.534C76.361,115.605 76.353,115.725 76.418,115.811C76.481,115.889 76.602,115.91 76.687,115.853C81.181,113.063 86.009,110.855 91.176,109.244C93.2,108.605 95.415,108.498 97.261,107.682C97.559,107.547 97.885,107.448 98.212,107.398C100.846,106.972 102.819,106.361 104.147,105.566C106.994,103.849 109.265,102.393 110.962,101.2C112.617,100.043 113.426,98.95 114.675,96.991C115.868,95.117 118.516,92.901 120.929,94.172C121.093,94.257 121.065,94.492 120.887,94.535C119.076,94.946 117.472,95.798 116.074,97.097C115.896,97.26 115.789,97.48 115.74,97.765C115.732,97.822 115.697,97.885 115.655,97.928L113.205,100.377C112.978,100.604 113.234,100.98 113.532,100.86L117.11,99.398C117.344,99.305 117.486,99.071 117.472,98.822L117.472,98.595C117.465,98.453 117.543,98.319 117.664,98.24L123.556,94.499C123.926,94.265 124.372,94.18 124.806,94.265L126.019,94.499C126.722,94.641 126.985,95.514 126.467,96.011C124.635,97.779 122.959,98.986 121.44,99.625C120.979,99.816 119.353,100.27 116.577,100.98C114.739,101.456 113.114,101.328 111.374,102.486C108.527,104.374 105.389,106.156 101.961,107.831C101.818,107.902 101.854,108.115 102.01,108.136C105.691,108.608 110.413,109.148 114.24,109.529C115.585,109.44 117.44,109.652 119.424,110.177C123.148,111.164 125.927,112.886 125.627,114.021C125.326,115.156 122.059,115.276 118.335,114.29C114.706,113.328 111.975,111.668 112.115,110.534C107.701,110.013 103.424,109.393 99.284,108.669C98.737,108.577 98.269,108.64 97.878,108.875C97.644,109.017 97.665,109.364 97.92,109.471L108.712,113.957C108.874,114.028 109.017,114.15 109.109,114.306L110.799,117.23C110.92,117.436 110.778,117.692 110.543,117.713C110.018,117.763 109.486,117.557 108.953,117.096C104.956,113.673 100.483,111.224 95.543,109.741C95.33,109.677 95.11,109.656 94.89,109.677C93.363,109.812 92.263,109.989 91.603,110.21C85.313,112.318 79.52,115.257 74.224,119.041C73.926,119.261 73.656,119.517 73.421,119.801C69.95,124.096 67.217,127.851 65.222,131.074C59.55,140.225 54.232,150.881 49.278,163.055C48.191,165.725 47.595,167.35 47.488,167.932C47.481,167.983 47.474,168.025 47.453,168.074L44.393,175.528C44.357,175.621 44.393,175.721 44.471,175.77C44.556,175.82 44.663,175.806 44.726,175.727C44.989,175.408 45.415,174.762 46.012,173.796C49.171,168.65 52.955,164.362 57.363,160.933C59.032,159.634 61.473,158.264 63.575,156.893C63.852,156.716 64.101,156.496 64.314,156.24C66.06,154.167 67.934,151.775 69.935,149.056C71.661,146.728 72.307,143.874 73.99,141.936C75.615,140.054 77.468,138.528 79.548,137.343C80.336,136.895 81.288,137.556 81.146,138.45C80.258,143.952 75.246,146.734 71.221,149.773C71.186,149.802 71.157,149.83 71.129,149.858L66.358,155.538C66.223,155.694 66.358,155.928 66.557,155.899C67.402,155.765 68.005,155.516 68.367,155.169C71.661,151.981 77.603,149.766 82.004,152.002C82.558,152.279 82.615,153.046 82.118,153.408C78.526,156.027 75.083,156.581 69.971,156.475C69.503,156.467 69.041,156.524 68.587,156.645L64.476,157.759C63.951,157.909 63.448,158.129 62.986,158.427C57.519,161.948 53.508,165.051 49.973,170.14C49.831,170.347 48.411,172.356 45.707,176.161C43.769,178.886 42.625,182.039 42.264,185.61C42.242,185.815 42.505,185.929 42.633,185.766C44.024,184.062 45.344,182.862 47.829,182.053C49.781,181.414 52.06,180.598 53.374,179.064C55.659,176.395 58.612,174.762 62.126,174.329C62.929,174.23 63.639,174.776 63.696,175.522C63.724,175.941 63.476,176.395 62.951,176.899C60.267,179.462 57.285,180.796 53.998,180.91C53.309,180.938 52.65,181.159 52.01,181.563C50.726,182.394 49.256,182.955 47.609,183.231C47.368,183.274 47.126,183.359 46.914,183.487C44.45,184.971 42.895,186.433 42.249,187.86C41.639,189.216 41.049,191.864 40.482,195.811C37.18,218.792 38.182,241.197 43.477,263.026C46.104,273.874 49.746,284.544 54.396,295.036C60.224,308.177 68.828,322.319 78.611,334.146C94.584,353.47 113.191,368.883 134.439,380.383C155.431,391.748 178.312,398.77 203.081,401.461C212.985,402.54 222.234,402.795 230.832,402.234C240.21,401.623 249.375,400.424 258.327,398.642C259.208,398.464 260.009,398.032 260.634,397.385C263.701,394.226 269.773,393.458 274.991,391.272C275.156,391.204 278.563,390.125 281.26,389.324C280.616,389.564 279.983,389.781 279.359,389.973C276.058,390.981 274.12,391.712 273.531,392.16C273.417,392.245 273.474,392.423 273.616,392.423C273.853,392.419 274.089,392.409 274.323,392.393ZM281.26,389.324C283.489,388.492 285.838,387.374 288.311,385.969C288.51,385.856 288.687,385.714 288.851,385.551L292.691,381.581C292.762,381.51 292.868,381.504 292.947,381.561C293.025,381.617 293.053,381.731 293.004,381.816C292.201,383.258 291.065,384.464 289.596,385.437C289.496,385.501 289.461,385.636 289.51,385.742C289.567,385.856 289.695,385.906 289.809,385.87C296.149,383.747 302.779,380.865 308.374,377.039C310.027,375.91 312.221,374.568 314.962,373.013C315.068,372.957 315.11,372.821 315.061,372.708L315.054,372.701C315.019,372.623 314.926,372.588 314.841,372.623C305.058,376.392 298.349,378.827 294.715,379.928C287.338,382.157 278.436,384.031 268,385.557C267.801,385.586 267.61,385.65 267.44,385.75C261.511,389.199 257.352,394.737 250.153,395.751C249.464,395.852 248.961,395.688 248.648,395.269C248.286,394.779 248.35,394.09 248.797,393.665C251.97,390.676 256.344,389.633 261.334,388.312C262.158,388.092 263.187,387.36 264.429,386.111C264.514,386.019 264.443,385.87 264.323,385.884C252.73,387.389 245.333,388.163 242.145,388.206C238.709,388.255 236.224,388.625 234.684,389.299C233.215,389.945 231.595,390.733 229.814,391.663C227.351,392.948 224.993,393.665 222.743,393.8C222.438,393.821 222.14,393.814 221.834,393.786C220.741,393.679 218.944,393.381 216.453,392.877C215.708,392.728 215.154,392.415 214.799,391.939C214.366,391.365 214.615,390.505 215.324,390.144C218.121,388.717 221.153,388.035 224.425,388.092C229.544,388.184 233.477,388.61 237.062,387.588C237.339,387.51 237.389,387.133 237.141,386.985L232.923,384.521C232.554,384.308 232.157,384.173 231.737,384.109C230.623,383.903 223.141,383.591 223.261,380.652C223.29,379.949 223.879,379.409 224.539,379.488C225.994,379.651 227.755,379.914 229.814,380.275C230.048,380.311 230.275,380.382 230.488,380.488C231.737,381.07 232.824,382.143 233.747,383.712C233.825,383.846 233.939,383.953 234.073,384.024L238.816,386.594C238.936,386.658 239.064,386.707 239.199,386.736C240.306,386.97 241.947,387.027 244.112,386.906C249.983,386.58 255.811,385.998 261.59,385.153C262.896,384.961 264.074,384.883 265.118,384.919C265.552,384.933 265.736,384.379 265.381,384.13L256.677,377.99C256.521,377.876 256.344,377.812 256.159,377.791L249.088,377.045C248.57,376.996 248.13,376.627 247.995,376.122L247.896,375.739C247.811,375.427 248.13,375.15 248.428,375.292C248.647,375.395 248.869,375.491 249.095,375.58C249.02,375.481 249.013,375.445 248.968,375.385C248.938,375.345 248.888,375.312 248.841,375.233C248.822,375.201 248.817,375.123 248.765,375.106C248.718,375.091 248.715,375.107 248.689,375.081L248.532,374.674C248.515,374.729 248.482,374.779 248.435,374.816L248.286,374.938C248.272,374.944 248.257,374.944 248.251,374.93L245.674,371.438C245.319,370.962 245.631,370.287 246.227,370.238C249.415,369.989 251.424,371.231 253.958,373.723C257.976,377.677 262.583,380.659 266.701,383.86C266.985,384.081 267.34,384.187 267.702,384.159C275.405,383.57 283.122,382.008 290.86,379.488C290.994,379.445 291.016,379.267 290.903,379.182C285.848,375.626 280.31,374.326 274.283,375.271C273.836,375.342 272.544,375.065 270.407,374.441C270.18,374.369 269.988,374.213 269.881,374L268.568,371.43C268.433,371.168 268.59,370.848 268.881,370.784C270.854,370.351 272.643,370.394 274.255,370.897C274.517,370.983 274.73,371.16 274.858,371.395C275.206,372.026 275.838,372.517 276.753,372.85C276.966,372.928 277.137,373.091 277.222,373.304C277.258,373.383 277.279,373.425 277.286,373.439C277.371,373.517 277.477,373.567 277.591,373.588L285.074,375.058C285.166,375.072 285.23,374.958 285.159,374.895C284.74,374.49 284.208,374.198 283.569,374.021C280.935,373.283 278.465,372.211 276.151,370.812C275.958,370.698 275.881,370.457 275.973,370.252C276.065,370.045 276.299,369.939 276.512,370.003C277.613,370.329 278.471,370.698 279.075,371.104C281.162,372.502 282.618,372.821 285.017,373.872C285.088,373.908 285.152,373.943 285.216,373.993L291.477,378.835C291.619,378.941 291.797,378.991 291.967,378.969C293.466,378.807 294.658,378.586 295.545,378.295C298.69,377.272 304.746,375.185 313.705,372.034C317.212,370.798 320.413,369.321 323.31,367.597C329.877,363.684 336.004,359.44 341.676,354.847C347.802,349.891 353.83,344.396 359.75,338.355C359.835,338.27 359.843,338.135 359.772,338.035C359.707,337.936 359.573,337.907 359.466,337.958C352.559,341.287 344.154,345.156 337.282,345.426C335.244,345.504 333.703,345.645 332.66,345.838C332.46,345.873 332.262,345.951 332.085,346.057L317.964,354.549C317.325,354.932 316.842,355.528 316.594,356.23L315.82,358.467C315.728,358.716 315.586,358.943 315.402,359.134C312.391,362.151 309.722,364.459 306.03,363.806C304.668,363.564 304,362.684 304.021,361.157C304.029,360.902 304.128,360.654 304.306,360.469C305.349,359.355 306.336,358.609 307.259,358.233C311.114,356.65 314.514,354.733 317.467,352.475C317.957,352.099 319.2,351.503 321.187,350.694C324.46,349.358 327.634,347.584 330.637,345.738C330.807,345.631 330.722,345.362 330.516,345.376C326.611,345.631 322.175,345.773 318.249,345.383C315.97,345.156 307.983,345.327 307.372,342.543C307.23,341.898 307.727,341.265 308.431,341.194C309.757,341.074 311.128,341.18 312.541,341.521C312.846,341.592 313.13,341.699 313.407,341.833C317.744,344.02 322.707,344.886 328.279,344.425C328.5,344.41 328.571,344.126 328.386,344.006L323.998,341.081C323.061,340.456 322.039,339.967 320.96,339.626C318.419,338.824 315.53,338.433 314.315,335.679C314.095,335.182 314.429,334.62 314.968,334.578C319.015,334.259 321.968,335.743 323.821,339.016C323.85,339.065 323.885,339.115 323.935,339.158L328.79,343.878C329.132,344.212 329.586,344.396 330.055,344.396L334.08,344.396C334.441,344.396 334.654,343.999 334.456,343.694C333.157,341.741 331.254,340.186 328.755,339.03C327.577,338.483 326.711,337.645 326.157,336.502C325.916,335.998 326.271,335.401 326.831,335.387C328.776,335.324 330.26,336.069 331.282,337.631C332.547,339.555 334.165,341.528 336.132,343.559C336.337,343.779 336.607,343.928 336.905,343.992C340.199,344.716 346.013,342.465 349.527,341.032C353.567,339.377 357.286,337.83 360.673,336.403C361.511,336.048 362.838,334.89 364.663,332.931C368.66,328.63 372.082,324.291 375.375,319.357C379.457,313.224 382.525,308.858 385.144,304.066C389.176,296.697 391.867,291.344 393.223,288C395.118,283.317 396.528,279.845 397.457,277.589L397.474,277.54L397.478,277.538C397.772,276.824 398.017,276.235 398.214,275.769C398.235,275.717 398.243,275.667 398.239,275.619C398.22,275.387 397.93,275.231 397.724,275.414C394.763,278.076 391.774,280.298 388.743,282.073C387.288,282.918 385.904,283.407 384.59,283.543C384.476,283.549 384.377,283.606 384.306,283.699L379.685,289.413L379.642,289.478C375.759,296.072 371.393,301.858 366.53,306.834C366.267,307.105 366.04,307.41 365.855,307.736C364.989,309.298 364.322,311.229 363.243,312.925C361.12,316.277 359.346,318.619 355.974,320.458C355.852,320.529 355.704,320.55 355.569,320.529C355.441,320.507 355.377,320.501 355.37,320.493C354.98,320.266 354.802,319.797 354.937,319.372C355.846,316.49 357.592,315.78 360.403,314.318C360.638,314.196 360.851,314.019 361.007,313.791L364.123,309.376C364.294,309.135 364.01,308.837 363.761,308.993C361.205,310.597 355.022,314.275 352.332,313.408C351.75,313.217 351.529,312.507 351.906,312.024C353.517,309.951 355.746,307.843 358.437,307.204C360.439,306.728 362.122,306.337 363.477,306.033C366.707,305.294 368.83,302.845 371.279,299.799C372.607,298.145 375.361,293.907 379.536,287.099C379.614,286.986 379.699,286.879 379.798,286.787L383.192,283.748C383.306,283.642 383.255,283.45 383.099,283.429C380.274,283.052 377.377,283.074 374.41,283.478C371.982,283.812 366.153,284.614 363.619,282.918C363.101,282.57 363.25,281.775 363.86,281.639C364.365,281.533 364.819,281.576 365.224,281.767C367.964,283.052 370.882,283.237 373.984,282.328C374.161,282.279 374.197,282.037 374.033,281.937C371.911,280.617 370.427,279.879 369.568,279.73C365.664,279.035 360.822,277.295 359.125,273.731C358.906,273.262 359.232,272.723 359.743,272.702C364.095,272.532 366.928,274.377 370.122,277.827C372.017,279.872 375.233,282.207 378.307,281.966C378.535,281.945 378.677,281.704 378.577,281.497C377.533,279.233 376.192,277.671 374.559,276.798C372.997,275.967 372.046,275.144 371.762,273.738C371.585,272.879 372.465,272.169 373.345,272.461C374.95,272.993 375.83,273.66 376.54,275.279C377.385,277.21 378.57,279.226 380.11,281.32C380.544,281.909 381.232,282.279 381.97,282.307C383.951,282.399 385.656,282.307 387.508,281.292C391.732,278.964 395.466,276.159 398.703,272.872C399.228,272.333 399.619,271.687 399.839,270.969C400.47,268.918 401.066,266.927 401.622,264.969L401.643,264.704C401.65,264.608 401.695,264.533 401.759,264.483C403.017,260.018 404.07,255.71 404.883,251.22C405.471,251.185 405.725,251.22 406.004,251.963C406.025,252.019 406.069,252.072 406.136,252.122C405.952,253.194 405.761,254.256 405.561,255.309C405.061,257.936 404.095,261.744 402.653,266.744C402.663,268.819 402.098,271.552 401.82,272.556C400.826,276.113 400.145,279.442 398.91,282.778C397.695,286.08 396.539,289.302 395.452,292.447C395.345,292.739 395.282,293.043 395.26,293.356C395.047,296.33 395.019,299.362 395.175,302.458C395.324,305.439 395.055,307.953 394.359,309.997C393.216,313.355 392.641,315.066 392.62,315.144C392.549,315.456 392.485,315.768 392.421,316.081C391.896,318.856 392.534,323.003 391.916,326.268C391.299,329.484 390.022,332.281 388.076,334.645C387.757,335.028 387.175,335.042 386.841,334.667C386.507,334.297 386.301,333.914 386.224,333.509C385.358,329.115 385.883,325.153 387.799,321.639C389.794,317.997 391.391,314.59 392.599,311.417C394.011,307.71 394.104,303.884 394.033,299.199C393.982,296.338 394.068,294.365 394.28,293.292C395.288,288.167 398.121,282.878 399.364,278.81C399.613,277.993 399.676,277.419 399.556,277.071C399.511,276.947 399.379,276.896 399.27,276.93C394.557,288.391 391.046,297.317 385.243,306.856C379.514,316.263 373.082,325.307 365.94,334.003C365.267,334.827 364.776,335.786 364.5,336.814C362.512,344.226 360.95,351.737 356.698,357.864C354.759,360.654 351.863,364.161 350.884,367.618C349.229,373.432 345.729,377.507 340.398,379.835C339.752,380.113 339.212,380.212 338.779,380.133C338.268,380.027 337.955,379.516 338.091,379.012C339.944,372.218 343.955,369.073 349.499,365.282C349.704,365.148 349.897,364.984 350.067,364.793C354.248,360.121 357.407,355.074 359.559,349.642C361.057,345.873 361.909,341.088 363.229,336.758C363.264,336.637 363.115,336.552 363.03,336.644C354.461,346.228 344.736,354.889 333.845,362.62C329.224,365.9 323.679,369.286 317.205,372.772C314.877,374.028 312.044,376.002 308.714,378.693C308.281,379.048 307.905,379.466 307.607,379.942C305.413,383.42 304.227,385.302 304.064,385.579C302.188,388.8 299.501,391.685 296.005,394.236L292.385,397.67C289.64,400.273 284.479,404.099 280.563,403.791C280.061,403.754 279.761,403.221 279.978,402.771C281.291,400.101 283.346,398.098 286.137,396.77C288.424,395.682 290.202,395.022 291.47,394.797C291.695,394.76 291.92,394.677 292.122,394.565C294.548,393.23 296.357,392.051 297.686,391.071C298.457,390.211 299.621,389.401 300.415,388.433C302.303,386.139 304.156,383.414 305.981,380.261C306.081,380.091 305.888,379.9 305.718,380.006C301.814,382.483 297.619,384.528 293.124,386.139C284.087,389.37 278.94,391.215 277.684,391.677C276.603,392.072 275.482,392.311 274.323,392.393L274.488,392.331C274.857,392.197 278.179,391.005 278.328,390.643L284.534,388.479C284.583,388.368 283.084,388.782 281.26,389.324ZM151.558,78.997C151.362,78.963 151.166,78.933 150.969,78.906C150.982,78.927 150.997,78.947 151.017,78.961C151.037,78.976 151.07,78.95 151.093,78.961C151.145,78.988 151.112,79.023 151.169,79.037C151.189,79.042 151.29,79.068 151.401,79.094C151.452,79.061 151.504,79.028 151.558,78.997ZM145.185,79.339C144.517,79.589 143.895,79.926 143.342,80.365C143.256,80.436 143.291,80.57 143.398,80.592L144.25,80.76C144.228,80.724 144.266,80.673 144.25,80.634C144.249,80.632 144.129,80.611 144.123,80.609C144.102,80.598 144.065,80.543 144.022,80.532C143.947,80.514 143.946,80.532 143.87,80.507C143.853,80.501 143.857,80.501 143.845,80.507C143.824,80.518 143.844,80.482 143.819,80.482C143.807,80.482 143.806,80.505 143.794,80.507C143.668,80.525 143.659,80.515 143.617,80.431L143.515,80.38C143.587,80.345 143.687,80.291 143.769,80.304C143.833,80.315 143.884,80.324 144.478,79.899C144.503,79.882 144.523,79.798 145.185,79.339ZM144.487,80.807L144.684,80.846C144.684,80.842 144.683,80.839 144.681,80.837C144.662,80.818 144.631,80.814 144.605,80.811C144.551,80.805 144.515,80.805 144.487,80.807ZM127.782,70.952C127.779,70.951 127.776,70.942 127.775,70.929C127.818,70.514 127.884,69.83 127.923,69.417L127.784,70.924L127.785,70.923L127.782,70.952ZM247.023,371.74C247.011,371.812 247.023,371.89 247.065,371.963L248.272,374.056C248.27,374.018 248.263,373.978 248.233,373.941C248.04,373.699 248.05,372.972 247.397,372.319L247.169,372.091C247.064,371.986 247.071,371.912 247.042,371.736C247.035,371.736 247.029,371.737 247.023,371.74ZM291.116,397.019C291.071,397.066 291.022,397.119 290.968,397.181C290.929,397.226 290.615,397.468 290.563,397.538C290.551,397.553 290.546,397.575 290.53,397.586C290.522,397.593 290.506,397.579 290.498,397.586C290.49,397.594 290.506,397.611 290.498,397.619C290.47,397.647 290.425,397.653 290.401,397.684C290.341,397.758 290.316,397.821 290.255,397.862C290.178,397.913 290.224,397.958 289.817,398.284C289.618,398.442 289.146,398.908 289.022,398.933C288.945,398.948 288.853,399.097 288.568,399.192C288.538,399.202 288.517,399.233 288.487,399.241C288.46,399.247 288.43,399.23 288.406,399.241C288.37,399.256 288.355,399.299 288.324,399.322C288.245,399.381 288.122,399.393 288.049,399.452C288.034,399.464 288.032,399.489 288.016,399.5C287.977,399.528 287.926,399.538 287.887,399.565C287.868,399.578 287.763,399.686 287.741,399.695C287.689,399.715 287.623,399.722 287.578,399.76C287.531,399.8 287.493,399.876 287.432,399.906C287.381,399.931 287.37,399.908 287.335,399.954C287.29,400.015 287.174,400.072 287.108,400.117C287.053,400.153 286.981,400.192 286.93,400.23C286.907,400.247 286.889,400.283 286.865,400.295C286.821,400.317 286.799,400.296 286.767,400.327C286.758,400.337 286.715,400.348 286.703,400.36C286.678,400.385 286.666,400.406 286.638,400.425C286.629,400.431 286.614,400.418 286.605,400.425C286.554,400.465 286.511,400.515 286.459,400.554C286.441,400.568 286.422,400.583 286.411,400.603C286.405,400.612 286.418,400.628 286.411,400.636C286.403,400.643 286.382,400.626 286.378,400.636C286.368,400.661 286.388,400.692 286.378,400.717C286.374,400.727 286.355,400.711 286.346,400.717C286.32,400.734 286.308,400.768 286.281,400.782C286.247,400.799 286.202,400.782 286.167,400.798C286.012,400.868 286.019,400.91 285.908,401.041C285.807,401.16 285.749,401.166 285.6,401.203C285.542,401.218 285.539,401.258 285.47,401.268C285.397,401.279 285.352,401.325 285.291,401.349C285.276,401.355 285.256,401.34 285.243,401.349C285.234,401.355 285.25,401.374 285.243,401.382C285.225,401.399 285.159,401.39 285.129,401.414C285.026,401.497 284.866,401.508 284.74,401.544C284.661,401.566 284.591,401.589 284.513,401.609C284.502,401.611 284.485,401.599 284.48,401.609C284.471,401.628 284.501,401.667 284.48,401.674C284.456,401.681 283.928,401.704 283.88,401.706C283.825,401.708 283.751,401.779 283.702,401.787C283.638,401.798 283.572,401.778 283.507,401.787C283.457,401.794 283.476,401.834 283.426,401.836C283.286,401.841 283.145,401.826 283.005,401.836C283,401.836 282.952,401.88 282.94,401.884C282.895,401.899 282.789,401.896 282.761,401.933C282.75,401.949 282.744,401.97 282.729,401.982C282.72,401.988 282.704,401.974 282.696,401.982C282.689,401.989 282.702,402.005 282.696,402.014C282.684,402.033 282.667,402.05 282.648,402.063C282.639,402.069 282.623,402.055 282.615,402.063C282.604,402.074 282.61,402.101 282.599,402.112C282.564,402.147 282.538,402.171 282.502,402.225C282.496,402.234 282.509,402.25 282.502,402.257C282.494,402.265 282.478,402.251 282.469,402.257C282.444,402.274 282.45,402.28 282.421,402.29C282.407,402.294 282.311,402.347 282.307,402.355C282.297,402.375 282.253,402.385 282.232,402.398L281.853,402.209C281.87,402.134 281.845,402.128 281.885,402.063C282.506,401.071 282.606,401.115 282.907,400.798C283.568,400.104 283.826,399.444 284.237,399.257C284.383,399.19 284.612,398.933 284.675,398.884C284.699,398.865 284.703,398.876 284.724,398.851C284.754,398.817 284.782,398.778 284.821,398.754C284.84,398.743 284.867,398.765 284.886,398.754C284.901,398.745 284.889,398.716 284.902,398.705C284.92,398.692 284.949,398.702 284.967,398.689C284.983,398.678 284.985,398.653 285,398.641C285.063,398.588 285.137,398.576 285.178,398.495C285.302,398.247 285.505,398.235 285.892,397.959C285.914,397.944 285.932,397.923 285.956,397.911C285.966,397.906 285.98,397.917 285.989,397.911C286.004,397.899 286.006,397.874 286.021,397.862C286.03,397.856 286.046,397.87 286.054,397.862C286.06,397.856 286.051,397.844 286.051,397.836C284.271,398.857 282.715,400.213 281.659,402.073C281.539,402.276 281.704,402.531 281.936,402.508C285.194,402.125 289.01,399.345 291.571,396.911C291.417,396.957 291.266,396.993 291.116,397.019ZM289.919,396.16C288.661,396.574 287.418,397.077 286.264,397.716C286.297,397.699 286.342,397.689 286.378,397.667C286.468,397.614 286.585,397.621 286.686,397.57C286.799,397.514 286.913,397.432 287.027,397.375C287.299,397.239 287.298,397.239 287.595,397.165C287.68,397.143 287.785,397.146 287.854,397.1C287.945,397.039 288.108,397.039 288.211,397.019C288.23,397.015 288.24,396.99 288.26,396.986C288.362,396.966 288.46,396.96 288.552,396.905C288.6,396.876 288.646,396.841 288.698,396.824C288.731,396.813 288.781,396.807 288.811,396.792C288.822,396.786 288.816,396.763 288.827,396.759C288.853,396.751 288.883,396.768 288.908,396.759C288.92,396.755 288.914,396.732 288.925,396.727C288.939,396.719 288.959,396.734 288.973,396.727C288.984,396.721 288.979,396.7 288.989,396.694C289.004,396.687 289.025,396.703 289.038,396.694C289.047,396.688 289.029,396.668 289.038,396.662C289.052,396.653 289.072,396.669 289.087,396.662C289.115,396.648 289.107,396.639 289.135,396.629C289.177,396.616 289.202,396.564 289.233,396.548C289.247,396.541 289.266,396.554 289.281,396.548C289.296,396.543 289.299,396.52 289.314,396.516C289.345,396.508 289.38,396.524 289.411,396.516C289.435,396.51 289.453,396.489 289.476,396.483L289.835,396.394C289.846,396.31 289.876,396.231 289.919,396.16ZM253.249,376.406C253.815,376.426 254.397,376.414 254.995,376.371C255.101,376.364 255.144,376.236 255.073,376.158C252.858,373.815 251.175,371.75 247.377,371.458C247.195,371.444 247.055,371.572 247.024,371.729C247.164,371.638 248.229,371.692 248.284,371.71C248.375,371.741 248.431,371.778 248.537,371.786C248.839,371.812 248.843,371.804 249.095,371.964C249.349,372.126 249.48,371.994 249.678,372.192C249.759,372.274 249.934,372.316 250.032,372.395C250.126,372.47 250.417,372.607 250.463,372.699C250.519,372.811 250.69,372.723 250.767,372.8C250.81,372.843 251.122,373.155 251.375,373.256C251.447,373.285 251.511,373.363 251.578,373.408C251.664,373.466 251.697,373.555 251.781,373.611C251.985,373.747 252.323,374.086 252.389,374.219C252.529,374.499 252.719,374.549 252.82,374.802C252.849,374.875 252.897,374.832 252.921,374.904C252.944,374.971 252.961,374.975 252.972,375.056C253.01,375.323 253.19,375.2 253.378,375.512C253.45,375.632 253.49,375.726 253.606,375.841C253.623,375.858 253.638,375.881 253.656,375.917C253.718,376.041 253.754,376.077 253.852,376.197C253.888,376.191 253.924,376.177 253.96,376.171C254.134,376.142 254.024,375.873 253.986,375.74C253.96,375.651 253.854,375.511 253.758,375.486C253.699,375.472 253.693,375.485 253.656,375.436C253.618,375.384 253.575,375.431 253.048,374.904C252.981,374.836 252.884,374.717 252.845,374.599C252.831,374.556 252.579,374.323 252.744,374.422C253.028,374.592 252.994,374.633 253.276,374.802C253.347,374.845 253.439,374.872 253.504,374.929C253.549,374.968 253.58,375.025 253.631,375.056C253.723,375.111 253.754,375.066 253.808,375.157C253.854,375.233 253.962,375.264 253.986,375.36C253.998,375.41 253.991,375.413 254.036,375.436C254.064,375.45 254.038,375.463 254.062,375.486C254.074,375.498 254.101,375.475 254.113,375.486C254.124,375.498 254.098,375.528 254.113,375.537C254.134,375.551 254.169,375.521 254.189,375.537C254.302,375.628 254.259,375.772 254.391,375.816C254.415,375.824 254.461,375.944 254.467,375.968C254.499,376.095 254.498,376.21 254.442,376.323C254.414,376.379 253.866,376.401 253.249,376.406ZM286.251,397.723L286.067,397.827C286.079,397.828 286.092,397.834 286.102,397.83C286.157,397.808 286.202,397.753 286.251,397.723Z" style="fill:rgb(191,161,107);stroke:rgb(191,161,107);stroke-width:2px;"/>
        <g transform="matrix(1,0,0,1,22.7222,-40.988)">
            <text x="100.84px" y="350.696px" style="font-family:'Garamond', serif;font-size:68px;fill:rgb(87,69,58);stroke:rgb(87,69,58);stroke-width:1px;stroke-linejoin:round;">C</text>
            <text x="151.537px" y="350.696px" style="font-family:'Garamond', serif;font-size:68px;fill:rgb(87,69,58);stroke:rgb(87,69,58);stroke-width:1px;stroke-linejoin:round;">A</text>
            <text x="205.09px" y="350.696px" style="font-family:'Garamond', serif;font-size:68px;fill:rgb(87,69,58);stroke:rgb(87,69,58);stroke-width:1px;stroke-linejoin:round;">R</text>
            <g transform="matrix(68,0,0,68,299.715,350.696)">
            </g>
            <text x="255.09px" y="350.696px" style="font-family:'Garamond', serif;font-size:68px;fill:rgb(87,69,58);stroke:rgb(87,69,58);stroke-width:1px;stroke-linejoin:round;">E</text>
        </g>
        <g transform="matrix(1,0,0,1,11.0181,-0.42269)">
            <text x="100.84px" y="176.675px" style="font-family:'Garamond', serif;font-size:68px;fill:rgb(87,69,58);stroke:rgb(87,69,58);stroke-width:1px;stroke-linejoin:round;">M</text>
            <text x="165.018px" y="176.675px" style="font-family:'Garamond', serif;font-size:68px;fill:rgb(87,69,58);stroke:rgb(87,69,58);stroke-width:1px;stroke-linejoin:round;">A</text>
            <text x="218.57px" y="176.675px" style="font-family:'Garamond', serif;font-size:68px;fill:rgb(87,69,58);stroke:rgb(87,69,58);stroke-width:1px;stroke-linejoin:round;">D</text>
            <g transform="matrix(68,0,0,68,323.123,176.675)">
            </g>
            <text x="278.498px" y="176.675px" style="font-family:'Garamond', serif;font-size:68px;fill:rgb(87,69,58);stroke:rgb(87,69,58);stroke-width:1px;stroke-linejoin:round;">E</text>
        </g>
        <g transform="matrix(1.30674,0,0,1.30674,-67.6741,-80.9061)">
            <path d="M216.273,226.598C217.193,225.925 218.104,225.589 219.006,225.589C219.785,225.589 220.435,225.872 220.957,226.438C221.479,227.005 221.74,227.686 221.74,228.482C221.74,230.747 220.475,233.223 217.945,235.913C215.379,238.655 212.973,240.026 210.726,240.026C208.585,240.026 207.515,238.92 207.515,236.709C207.515,235.541 208.019,233.913 209.028,231.826C206.285,234.285 204.357,235.93 203.242,236.762C200.288,239.009 197.66,240.278 196.014,240.278C195.802,240.278 195.751,240.255 195.857,240.065C196.029,239.758 195.91,239.669 196.396,239.526C198.164,239.006 200.96,237.4 204.038,234.961C207.453,232.256 210.708,228.986 213.805,225.15C218.44,219.405 222.412,215.145 225.72,212.369C229.17,209.488 231.461,208.047 232.594,208.047C233.708,208.047 234.266,208.595 234.266,209.691C234.266,210.893 233.142,212.767 230.895,215.313C228.984,217.469 225.446,220.2 220.28,223.506C219.555,223.93 218.502,224.593 217.122,225.495C216.892,225.656 216.609,226.024 216.273,226.598ZM233.204,209.905C233.204,209.693 233.116,209.587 232.939,209.587C232.125,209.587 229.71,211.657 225.694,215.797C222.438,219.14 220.103,221.697 218.688,223.466C225.694,219.167 230.188,215.39 232.169,212.134C232.859,211.02 233.204,210.277 233.204,209.905ZM217.148,232.967C218.829,230.95 219.67,229.305 219.67,228.031C219.67,227.128 219.298,226.677 218.555,226.677C217.688,226.677 216.892,227.097 216.166,227.938C215.441,228.778 215.078,229.641 215.078,230.525C215.078,231.728 215.768,232.542 217.148,232.967ZM216.538,233.79C214.893,233.1 214.07,232.02 214.07,230.552C214.07,230.003 214.256,229.322 214.627,228.508C211.018,233.091 209.213,236.16 209.213,237.717C209.213,238.443 209.558,238.805 210.248,238.805C211.894,238.805 213.99,237.133 216.538,233.79Z" style="fill:rgb(87,69,58);fill-rule:nonzero;"/>
            <path d="M237.822,239.283L239.467,239.23C239.697,239.23 239.812,239.375 239.812,239.665C239.812,239.992 239.405,240.192 238.591,240.265L236.946,240.345L229.542,249.5C225.101,254.56 221.952,257.09 220.094,257.09C219.21,257.09 218.767,256.497 218.767,255.31C218.767,252.67 220.505,249.618 223.982,246.154C227.459,242.689 231.037,240.541 234.717,239.708L240.21,232.648L235.858,236.523C233.204,238.717 231.399,239.814 230.444,239.814C229.329,239.814 228.772,239.026 228.772,237.452C228.772,236.09 229.418,234.488 230.709,232.648L233.947,228.562C231.859,230.419 229.462,232.427 226.755,234.586C224.544,236.337 223.049,237.47 222.27,237.983C220.13,239.416 218.396,240.132 217.069,240.132C216.856,240.132 216.75,240.014 216.75,239.777C216.75,239.468 216.927,239.268 217.281,239.177C219.51,238.63 222.589,236.749 226.516,233.535L231.161,229.72L234.159,227.071C235.84,225.623 236.787,224.899 236.999,224.899C237.459,224.899 237.897,225.054 238.313,225.364C238.729,225.675 238.936,226.051 238.936,226.495L234.743,231.36C231.948,234.676 230.55,236.883 230.55,237.982C230.55,238.301 230.727,238.46 231.081,238.46C232.143,238.46 234.734,236.493 238.857,232.558C241.882,229.669 244.394,227.09 246.394,224.821C246.801,224.36 247.093,224.13 247.269,224.13C247.606,224.13 247.955,224.249 248.318,224.487C248.68,224.726 248.862,225.004 248.862,225.322C248.862,225.498 248.747,225.71 248.517,225.957C245.261,229.49 241.696,233.932 237.822,239.283ZM233.788,240.875C230.232,242.025 227.007,244.126 224.115,247.178C221.222,250.23 219.776,252.738 219.776,254.702C219.776,255.303 219.988,255.604 220.413,255.604C222.111,255.604 226.57,250.695 233.788,240.875Z" style="fill:rgb(87,69,58);fill-rule:nonzero;"/>
        </g>
        <g transform="matrix(0.903117,1.01652,-2.97991,2.64747,707.377,-563.921)">
            <path d="M163.17,234.802C162.926,234.804 162.697,234.851 162.453,234.853C162.358,234.854 159.319,234.369 156.135,233.097C153.867,232.19 153.025,231.593 152.831,231.469C152.799,231.448 152.773,231.399 152.892,231.429C152.952,231.443 156.657,233.457 161.863,234.405C162.108,234.45 162.107,234.448 162.348,234.493C162.704,234.56 162.96,234.602 162.961,234.602C163.056,234.665 163.075,234.739 163.17,234.802Z" style="fill:rgb(87,69,58);"/>
        </g>
        <g id="Needle1" serif:id="Needle" transform="matrix(0.860805,0.146287,-0.146287,0.860805,97.4934,197.681)">
            <path d="M70.034,19.069C68.941,20.156 67.785,21.236 66.566,22.307C64.276,24.318 61.857,26.322 59.448,28.636C45.64,41.886 31.934,55.177 18.324,68.505C17.196,69.609 15.626,71.111 14.047,72.032C13.9,72.116 13.797,72.129 13.735,72.066C13.672,72.004 13.684,71.901 13.768,71.756C14.69,70.175 16.19,68.603 17.294,67.475C30.614,53.857 43.893,40.141 57.136,26.324C59.448,23.915 61.452,21.493 63.46,19.204C66.412,15.839 69.427,12.954 72.504,10.544C73.411,9.834 75.475,8.365 76.437,9.325C77.397,10.285 75.928,12.349 75.218,13.259C73.895,14.951 72.428,16.624 70.817,18.278M69.627,17.476C70.915,16.154 73.331,13.532 72.739,12.94C71.985,12.186 67.944,16.309 67.48,16.772C67.017,17.236 62.896,21.28 63.65,22.033C64.404,22.787 68.448,18.664 68.908,18.2M68.908,18.2C69.007,18.101 69.275,17.837 69.627,17.476M70.817,18.278C70.56,18.542 70.299,18.806 70.034,19.069" style="fill-rule:nonzero;"/>
        </g>
        <path d="M223.349,58.997C222.988,58.996 222.696,58.702 222.696,58.341C222.697,57.981 222.991,57.688 223.351,57.689C225.149,57.693 226.94,57.725 228.723,57.786C229.084,57.798 229.367,58.101 229.354,58.462C229.342,58.822 229.039,59.105 228.679,59.093C226.909,59.033 225.132,59 223.349,58.997ZM244.611,60.41C244.253,60.363 244.001,60.034 244.048,59.676C244.095,59.319 244.424,59.066 244.782,59.114C248.353,59.584 251.888,60.17 255.383,60.865C255.737,60.935 255.967,61.28 255.897,61.634C255.826,61.988 255.482,62.218 255.128,62.147C251.66,61.458 248.153,60.877 244.611,60.41ZM270.634,66.032C270.288,65.928 270.093,65.562 270.198,65.217C270.303,64.871 270.668,64.676 271.013,64.781C274.453,65.825 277.846,66.978 281.187,68.236C281.525,68.364 281.696,68.741 281.569,69.079C281.442,69.416 281.064,69.587 280.727,69.46C277.412,68.212 274.046,67.068 270.634,66.032ZM295.392,75.821C295.069,75.661 294.936,75.269 295.095,74.945C295.255,74.622 295.647,74.489 295.971,74.648C299.19,76.236 302.35,77.926 305.447,79.713C305.76,79.893 305.867,80.293 305.687,80.606C305.506,80.919 305.106,81.026 304.794,80.845C301.721,79.073 298.586,77.396 295.392,75.821ZM318.234,89.5C317.941,89.29 317.873,88.881 318.082,88.588C318.292,88.294 318.701,88.226 318.995,88.436C321.911,90.521 324.757,92.699 327.528,94.964C327.808,95.193 327.849,95.605 327.621,95.885C327.392,96.164 326.98,96.205 326.7,95.977C323.951,93.729 321.128,91.569 318.234,89.5ZM338.572,106.683C338.316,106.429 338.315,106.014 338.569,105.758C338.824,105.502 339.238,105.501 339.494,105.755C342.035,108.28 344.494,110.886 346.867,113.57C347.107,113.841 347.081,114.254 346.811,114.493C346.54,114.732 346.127,114.707 345.888,114.437C343.533,111.774 341.093,109.188 338.572,106.683ZM355.885,126.912C355.673,126.619 355.739,126.21 356.031,125.998C356.323,125.787 356.732,125.852 356.944,126.144C359.044,129.042 361.052,132.01 362.964,135.044C363.156,135.349 363.064,135.753 362.759,135.946C362.454,136.138 362.05,136.046 361.857,135.741C359.96,132.731 357.968,129.786 355.885,126.912ZM369.71,149.665C369.549,149.342 369.679,148.949 370.002,148.788C370.324,148.626 370.718,148.756 370.879,149.079C372.481,152.274 373.982,155.528 375.378,158.837C375.519,159.169 375.363,159.553 375.03,159.693C374.698,159.834 374.314,159.678 374.174,159.345C372.788,156.063 371.299,152.835 369.71,149.665ZM379.659,174.36C379.552,174.015 379.745,173.649 380.089,173.541C380.434,173.434 380.801,173.627 380.908,173.972C381.966,177.38 382.917,180.835 383.756,184.332C383.841,184.683 383.624,185.037 383.273,185.121C382.922,185.205 382.569,184.989 382.485,184.638C381.652,181.168 380.709,177.74 379.659,174.36ZM385.449,200.346C385.399,199.989 385.65,199.658 386.007,199.609C386.364,199.559 386.695,199.809 386.744,200.167C387.233,203.694 387.609,207.257 387.871,210.852C387.897,211.212 387.626,211.525 387.266,211.552C386.906,211.578 386.593,211.307 386.567,210.947C386.307,207.381 385.933,203.846 385.449,200.346ZM386.958,226.929C386.966,226.568 387.266,226.282 387.627,226.291C387.987,226.299 388.273,226.599 388.265,226.96C388.18,230.565 387.979,234.142 387.667,237.687C387.635,238.047 387.317,238.313 386.958,238.281C386.598,238.25 386.332,237.932 386.364,237.573C386.674,234.055 386.873,230.506 386.958,226.929ZM384.185,253.409C384.251,253.054 384.594,252.821 384.948,252.887C385.303,252.954 385.537,253.296 385.47,253.65C385.139,255.415 384.779,257.17 384.392,258.914C384.314,259.267 383.964,259.489 383.612,259.411C383.26,259.333 383.037,258.983 383.116,258.631C383.5,256.901 383.856,255.16 384.185,253.409Z"/>
        <path d="M204.736,386.654C122.44,377.556 58.342,307.704 58.342,223C58.342,213.073 59.223,203.351 60.909,193.906" style="fill:none;stroke:black;stroke-width:1.3px;stroke-linecap:round;stroke-linejoin:round;stroke-miterlimit:1.5;stroke-dasharray:10.4,15.6,0,0,0,0;"/>
        <g transform="matrix(1.20841,0.623452,-1.82763,3.54241,387.546,-709.097)">
            <path d="M189.63,232.056C182.82,235.236 168.118,236.683 162.129,234.525" style="fill:none;stroke:rgb(87,69,58);stroke-width:0.4px;stroke-linecap:round;stroke-linejoin:round;stroke-miterlimit:1.5;"/>
        </g>
    </g>
</svg>
